<svg width="29" height="24" viewBox="0 0 29 24" fill="none" xmlns="http://www.w3.org/2000/svg">
<path d="M0.806641 5.02687L0.700462 4.28442C0.397394 4.32776 0.151093 4.55096 0.0782056 4.84831C0.00531846 5.14566 0.120479 5.45746 0.369147 5.63605L0.806641 5.02687ZM27.351 1.23071L27.941 1.69367C28.1301 1.45266 28.1536 1.12086 28.0004 0.855592C27.8472 0.59032 27.548 0.444898 27.2448 0.488267L27.351 1.23071ZM10.8112 22.3115L10.0654 22.3906C10.0976 22.6942 10.3106 22.948 10.6041 23.0323C10.8975 23.1166 11.2128 23.0146 11.4012 22.7744L10.8112 22.3115ZM9.843 13.1846L9.09385 13.2202C9.09454 13.2347 9.09566 13.2492 9.09719 13.2637L9.843 13.1846ZM9.76232 11.4884L10.5115 11.4528C10.5026 11.2665 10.4247 11.0903 10.2929 10.9584L9.76232 11.4884ZM9.68164 11.4076H8.93164C8.93164 11.6064 9.01055 11.797 9.15102 11.9377L9.68164 11.4076ZM9.68164 11.2461H10.4316C10.4316 10.985 10.2958 10.7426 10.073 10.6063L9.68164 11.2461ZM8.22937 10.3576L7.79187 10.9668C7.80686 10.9776 7.82224 10.9878 7.83797 10.9974L8.22937 10.3576ZM26.9216 2.28267C27.2795 2.07422 27.4007 1.61507 27.1922 1.25713C26.9838 0.899186 26.5246 0.778 26.1667 0.986451L26.9216 2.28267ZM9.38489 10.7595C9.02695 10.968 8.90576 11.4271 9.11421 11.7851C9.32266 12.143 9.78182 12.2642 10.1398 12.0557L9.38489 10.7595ZM0.912819 5.76931L27.4571 1.97316L27.2448 0.488267L0.700462 4.28442L0.912819 5.76931ZM26.7609 0.767757L10.2211 21.8485L11.4012 22.7744L27.941 1.69367L26.7609 0.767757ZM11.557 22.2324L10.5888 13.1054L9.09719 13.2637L10.0654 22.3906L11.557 22.2324ZM10.5922 13.1489L10.5115 11.4528L9.01317 11.524L9.09385 13.2202L10.5922 13.1489ZM10.2929 10.9584L10.2123 10.8776L9.15102 11.9377L9.2317 12.0184L10.2929 10.9584ZM10.4316 11.4076V11.2461H8.93164V11.4076H10.4316ZM10.073 10.6063L8.62076 9.71786L7.83797 10.9974L9.29025 11.8859L10.073 10.6063ZM8.66686 9.74846L1.24413 4.41769L0.369147 5.63605L7.79187 10.9668L8.66686 9.74846ZM26.1667 0.986451L9.38489 10.7595L10.1398 12.0557L26.9216 2.28267L26.1667 0.986451Z" fill="white"/>
</svg>
