<svg width="193" height="119" viewBox="0 0 193 119" fill="none" xmlns="http://www.w3.org/2000/svg">
<path d="M12.152 93.724C13.44 93.9667 14.4853 94.4427 15.288 95.152C16.1093 95.8613 16.52 96.9253 16.52 98.344C16.52 100.416 15.7733 101.881 14.28 102.74C12.8053 103.58 10.7333 104 8.064 104H1.82V84.596H7.308C10.0333 84.596 12.1147 84.988 13.552 85.772C14.9893 86.5373 15.708 87.7973 15.708 89.552C15.708 90.6907 15.3627 91.6147 14.672 92.324C14 93.0147 13.16 93.4813 12.152 93.724ZM6.412 87.844V92.352H8.12C10.0613 92.352 11.032 91.568 11.032 90C11.032 89.216 10.7707 88.6653 10.248 88.348C9.72533 88.012 8.89467 87.844 7.756 87.844H6.412ZM8.092 100.668C9.30533 100.668 10.22 100.491 10.836 100.136C11.4707 99.7627 11.788 99.0813 11.788 98.092C11.788 96.3 10.668 95.404 8.428 95.404H6.412V100.668H8.092ZM31.5613 104H27.7253L27.5293 102.124C26.4466 103.692 24.9439 104.476 23.0213 104.476C21.6586 104.476 20.6226 104.065 19.9133 103.244C19.2226 102.423 18.8773 101.275 18.8773 99.8V89.132H23.3013V99.24C23.3013 99.968 23.4133 100.481 23.6373 100.78C23.8799 101.06 24.2439 101.2 24.7293 101.2C25.6626 101.2 26.4653 100.621 27.1373 99.464V89.132H31.5613V104ZM43.1047 88.712C43.646 88.712 44.1407 88.7773 44.5887 88.908L43.8887 93.192C43.3287 93.0613 42.8807 92.996 42.5447 92.996C41.6674 92.996 40.9954 93.304 40.5287 93.92C40.0807 94.5173 39.726 95.4227 39.4647 96.636V104H35.0407V89.132H38.9047L39.2687 92.016C39.6047 90.9893 40.1087 90.1867 40.7807 89.608C41.4714 89.0107 42.246 88.712 43.1047 88.712ZM51.1868 88.656C52.2508 88.656 53.2495 88.8147 54.1828 89.132C55.1162 89.4493 55.9375 89.8973 56.6468 90.476L55.0228 92.968C53.8095 92.2027 52.5868 91.82 51.3548 91.82C50.7762 91.82 50.3282 91.9227 50.0108 92.128C49.7122 92.3147 49.5628 92.5853 49.5628 92.94C49.5628 93.22 49.6282 93.4533 49.7588 93.64C49.9082 93.808 50.1975 93.9853 50.6268 94.172C51.0562 94.3587 51.7188 94.5827 52.6148 94.844C54.1642 95.292 55.3122 95.88 56.0588 96.608C56.8242 97.3173 57.2068 98.3067 57.2068 99.576C57.2068 100.584 56.9175 101.461 56.3388 102.208C55.7602 102.936 54.9668 103.496 53.9588 103.888C52.9508 104.28 51.8308 104.476 50.5988 104.476C49.3482 104.476 48.1815 104.28 47.0988 103.888C46.0348 103.496 45.1295 102.955 44.3828 102.264L46.5388 99.856C47.7895 100.827 49.1055 101.312 50.4868 101.312C51.1588 101.312 51.6815 101.191 52.0548 100.948C52.4468 100.705 52.6428 100.36 52.6428 99.912C52.6428 99.5573 52.5682 99.2773 52.4188 99.072C52.2695 98.8667 51.9802 98.68 51.5508 98.512C51.1215 98.3253 50.4402 98.1013 49.5068 97.84C48.0322 97.4107 46.9308 96.8133 46.2028 96.048C45.4748 95.2827 45.1108 94.3307 45.1108 93.192C45.1108 92.3333 45.3535 91.568 45.8388 90.896C46.3428 90.2053 47.0522 89.664 47.9668 89.272C48.9002 88.8613 49.9735 88.656 51.1868 88.656ZM78.3359 89.132L75.2559 104H69.9639L67.9759 93.08L66.0159 104H60.7799L57.6159 89.132H62.0959L63.6359 100.696L65.9599 89.132H70.2719L72.3159 100.696L74.1079 89.132H78.3359ZM86.6526 88.656C88.9299 88.656 90.7126 89.356 92.0006 90.756C93.2886 92.1373 93.9326 94.0787 93.9326 96.58C93.9326 98.1667 93.6339 99.5573 93.0366 100.752C92.4579 101.928 91.6179 102.843 90.5166 103.496C89.4339 104.149 88.1459 104.476 86.6526 104.476C84.3939 104.476 82.6112 103.785 81.3046 102.404C80.0166 101.004 79.3726 99.0533 79.3726 96.552C79.3726 94.9653 79.6619 93.584 80.2406 92.408C80.8379 91.2133 81.6779 90.2893 82.7606 89.636C83.8619 88.9827 85.1592 88.656 86.6526 88.656ZM86.6526 91.904C85.7566 91.904 85.0846 92.2867 84.6366 93.052C84.1886 93.7987 83.9646 94.9653 83.9646 96.552C83.9646 98.176 84.1792 99.3613 84.6086 100.108C85.0566 100.855 85.7379 101.228 86.6526 101.228C87.5486 101.228 88.2206 100.855 88.6686 100.108C89.1166 99.3427 89.3406 98.1667 89.3406 96.58C89.3406 94.956 89.1166 93.7707 88.6686 93.024C88.2392 92.2773 87.5672 91.904 86.6526 91.904ZM103.004 88.656C105.281 88.656 107.064 89.356 108.352 90.756C109.64 92.1373 110.284 94.0787 110.284 96.58C110.284 98.1667 109.985 99.5573 109.388 100.752C108.809 101.928 107.969 102.843 106.868 103.496C105.785 104.149 104.497 104.476 103.004 104.476C100.745 104.476 98.9628 103.785 97.6561 102.404C96.3681 101.004 95.7241 99.0533 95.7241 96.552C95.7241 94.9653 96.0135 93.584 96.5921 92.408C97.1895 91.2133 98.0295 90.2893 99.1121 89.636C100.213 88.9827 101.511 88.656 103.004 88.656ZM103.004 91.904C102.108 91.904 101.436 92.2867 100.988 93.052C100.54 93.7987 100.316 94.9653 100.316 96.552C100.316 98.176 100.531 99.3613 100.96 100.108C101.408 100.855 102.089 101.228 103.004 101.228C103.9 101.228 104.572 100.855 105.02 100.108C105.468 99.3427 105.692 98.1667 105.692 96.58C105.692 94.956 105.468 93.7707 105.02 93.024C104.591 92.2773 103.919 91.904 103.004 91.904ZM126.244 83.224V104H122.324L122.1 102.264C121.054 103.739 119.645 104.476 117.872 104.476C116.024 104.476 114.614 103.767 113.644 102.348C112.692 100.929 112.216 98.988 112.216 96.524C112.216 95.012 112.468 93.6587 112.972 92.464C113.476 91.2693 114.185 90.336 115.1 89.664C116.033 88.992 117.097 88.656 118.292 88.656C119.71 88.656 120.886 89.1227 121.82 90.056V82.748L126.244 83.224ZM119.244 101.228C120.27 101.228 121.129 100.668 121.82 99.548V93.136C121.465 92.7067 121.101 92.3893 120.728 92.184C120.373 91.9787 119.962 91.876 119.496 91.876C118.674 91.876 118.021 92.2587 117.536 93.024C117.05 93.7893 116.808 94.9653 116.808 96.552C116.808 98.288 117.013 99.5013 117.424 100.192C117.853 100.883 118.46 101.228 119.244 101.228ZM142.705 84.596C145.263 84.596 147.251 85.128 148.669 86.192C150.088 87.256 150.797 88.8333 150.797 90.924C150.797 93.108 150.097 94.76 148.697 95.88C147.316 96.9813 145.459 97.532 143.125 97.532H141.025V104H136.433V84.596H142.705ZM142.733 94.228C143.816 94.228 144.637 93.976 145.197 93.472C145.776 92.9493 146.065 92.1 146.065 90.924C146.065 88.8893 144.927 87.872 142.649 87.872H141.025V94.228H142.733ZM163.505 99.688C163.505 100.248 163.58 100.659 163.729 100.92C163.897 101.181 164.158 101.377 164.513 101.508L163.589 104.392C162.674 104.317 161.928 104.121 161.349 103.804C160.77 103.468 160.322 102.945 160.005 102.236C159.034 103.729 157.541 104.476 155.525 104.476C154.05 104.476 152.874 104.047 151.997 103.188C151.12 102.329 150.681 101.209 150.681 99.828C150.681 98.204 151.278 96.9627 152.473 96.104C153.668 95.2453 155.394 94.816 157.653 94.816H159.165V94.172C159.165 93.2947 158.978 92.6973 158.605 92.38C158.232 92.044 157.578 91.876 156.645 91.876C156.16 91.876 155.572 91.9507 154.881 92.1C154.19 92.2307 153.481 92.4173 152.753 92.66L151.745 89.748C152.678 89.3933 153.63 89.1227 154.601 88.936C155.59 88.7493 156.505 88.656 157.345 88.656C159.473 88.656 161.032 89.0947 162.021 89.972C163.01 90.8493 163.505 92.1653 163.505 93.92V99.688ZM156.813 101.312C157.821 101.312 158.605 100.836 159.165 99.884V97.252H158.073C157.065 97.252 156.309 97.4293 155.805 97.784C155.32 98.1387 155.077 98.6893 155.077 99.436C155.077 100.033 155.226 100.5 155.525 100.836C155.842 101.153 156.272 101.312 156.813 101.312ZM175.093 88.712C175.634 88.712 176.129 88.7773 176.577 88.908L175.877 93.192C175.317 93.0613 174.869 92.996 174.533 92.996C173.656 92.996 172.984 93.304 172.517 93.92C172.069 94.5173 171.714 95.4227 171.453 96.636V104H167.029V89.132H170.893L171.257 92.016C171.593 90.9893 172.097 90.1867 172.769 89.608C173.46 89.0107 174.234 88.712 175.093 88.712ZM182.691 82.748V104H178.267V83.224L182.691 82.748ZM191.875 89.132L187.367 95.656L192.239 104H187.255L182.831 95.88L187.367 89.132H191.875Z" fill="white"/>
<path d="M48 8.91241C48 8.91241 62.0393 11.4254 66.4448 13.6968C71.1891 16.1615 73.4644 16.7414 78.112 16.9347C82.8079 17.128 87.6974 17.273 90.4569 22.3474C93.2163 27.4217 95.1528 32.0611 97.2345 33.4626C99.3162 34.9124 101.253 33.5109 101.495 31.8678C101.688 30.2247 102.753 17.9013 103.77 14.4217C105.174 9.63732 107.982 4.75628 110.354 2.72654C112.726 0.648472 113.694 -0.269744 116.067 0.0685462C118.439 0.406836 118.826 0.648472 118.826 0.648472C118.826 0.648472 112.968 1.51836 111.661 3.5481C110.354 5.57784 107.014 9.58899 106.142 15.1466C105.319 20.7042 105.9 25.392 105.9 26.9868C105.9 28.5816 106.239 30.5146 105.997 32.8827C105.755 35.299 105.416 37.2321 105.416 37.2321C105.416 37.2321 107.11 33.1243 107.449 29.7414C107.788 26.3102 110.209 21.6708 113.404 19.5927C116.648 17.563 118.778 15.1466 125.216 12.8752C131.655 10.6039 135.383 11.1838 138.336 10.8455C141.337 10.5072 143.225 10.1689 143.225 10.1689C143.225 10.1689 140.466 12.4403 137.61 14.1317C134.753 15.8232 127.443 18.4812 125.071 21.2842C122.699 24.1355 120.52 29.0165 117.761 32.786C115.002 36.5555 112.048 38.8269 108.902 41.0983C105.803 43.3697 104.835 42.2581 102.56 45.4477C100.284 48.6373 96.4599 50.812 93.6036 52.7451C90.7474 54.6782 86.584 59.8975 85.3737 61.299C84.1634 62.6522 82.5174 63.5704 79.177 63.4738C75.8366 63.3771 70.4629 63.5704 70.4629 63.5704C70.4629 63.5704 75.5946 60.6225 77.8699 58.3511C80.1452 56.0797 84.3086 50.4738 85.3737 48.3474C86.4387 46.1726 86.826 45.0611 86.826 45.0611C86.826 45.0611 81.2103 44.6262 78.2088 41.8715C75.3525 39.0685 73.4644 36.7972 71.8669 33.0277C70.3177 29.2581 68.1876 25.4403 61.6036 21.8641C57.1982 19.4961 56.7141 18.3362 54.4387 15.8232C52.2118 13.3585 51.3404 11.7637 50.1785 10.8455C48.9682 9.92728 48 8.91241 48 8.91241Z" fill="white"/>
</svg>
