<svg width="193" height="39" viewBox="0 0 193 39" fill="none" xmlns="http://www.w3.org/2000/svg">
<path d="M72.1284 32.5567C72.1284 33.1676 72.1961 33.6427 72.2637 33.7784C72.3314 33.9142 72.5345 33.982 72.9405 34.0499L73.7526 34.1178V34.5929C72.8728 34.5929 72.1284 34.525 71.3163 34.525C70.5041 34.525 69.692 34.525 68.8799 34.5929V34.1178L69.692 34.0499C70.0981 34.0499 70.3011 33.982 70.3688 33.7784C70.5041 33.5748 70.5041 33.1676 70.5041 32.5567V25.0906C70.5041 24.4798 70.4365 24.0047 70.3688 23.8689C70.2334 23.7332 70.0981 23.5974 69.6243 23.5974L68.8799 23.5296V23.0544C69.9627 23.0544 70.9102 23.1223 71.8577 23.1223C72.8052 23.1223 73.8203 23.0544 74.7001 23.0544H74.8355C76.3921 23.0544 78.1517 23.801 78.1517 25.6336C78.1517 27.7377 76.3244 29.2309 74.1587 29.2309C73.8203 29.2309 73.4819 29.2309 73.1436 29.163L73.0082 28.5522C73.3466 28.6879 73.7526 28.6879 74.091 28.6879C75.4446 28.6879 76.4597 27.602 76.4597 26.1766C76.4597 24.4119 75.4446 23.6653 73.7526 23.6653C73.0082 23.6653 72.5345 23.7332 72.0607 23.8689V32.5567H72.1284Z" fill="white"/>
<path d="M88.9122 32.3528C89.0475 32.6922 89.2505 33.1673 89.4536 33.5067C89.6566 33.8461 89.792 34.0497 90.1303 34.0497L90.6718 34.1176V34.5927C89.9273 34.5927 89.1829 34.5248 88.4384 34.5248C87.8293 34.5248 87.1525 34.5927 86.2051 34.5927V34.1176L87.0172 34.0497C87.3556 34.0497 87.694 33.9139 87.694 33.7103C87.694 33.4388 87.4909 33.0316 87.3556 32.6243L86.6111 30.7239H81.806L81.3323 31.8777C81.1969 32.2171 80.7232 33.3709 80.7232 33.6424C80.7232 33.9818 80.9939 34.0497 81.5353 34.1176L82.1444 34.1854V34.6605C81.3323 34.6605 80.7232 34.5927 80.2495 34.5927C79.5727 34.5927 78.9636 34.6605 78.3545 34.6605V34.1854L78.9636 34.1176C79.3697 34.1176 79.708 33.7103 79.8434 33.3031L82.8212 26.5836C83.3626 25.4298 83.904 24.208 84.3778 22.9863H84.9192L88.9122 32.3528ZM86.2727 30.0452L84.1747 25.0904L82.0767 30.0452H86.2727Z" fill="white"/>
<path d="M95.2739 32.5565C95.2739 33.1673 95.2739 33.6424 95.4093 33.7782C95.4769 33.9139 95.68 33.9818 96.086 34.0497L96.8982 34.1176V34.5927C96.0184 34.5927 95.2739 34.5248 94.4618 34.5248C93.6496 34.5248 92.8375 34.5248 92.0254 34.5927V34.1176L92.8375 34.0497C93.2436 34.0497 93.4466 33.9818 93.5143 33.7782C93.6496 33.5746 93.6496 33.1673 93.6496 32.5565V25.0904C93.6496 24.4795 93.582 24.0044 93.5143 23.8008C93.4466 23.6651 93.2436 23.5972 92.8375 23.5293L92.1607 23.4614V22.9863C93.0406 22.9863 93.988 23.0542 95.0032 23.0542C95.9507 23.0542 96.9658 22.9863 97.9133 22.9863H98.0487C100.62 22.9863 101.23 24.2759 101.23 25.4976C101.23 27.3302 99.6052 28.4162 97.981 28.6877L101.771 33.6424C102.042 33.9818 102.38 34.0497 102.786 34.0497V34.5248C102.38 34.5248 101.974 34.4569 101.568 34.4569C101.162 34.4569 100.823 34.5248 100.417 34.5248C100.214 34.1854 99.9436 33.9139 99.7406 33.6424L96.6951 29.5022C96.4244 29.1628 96.086 28.8234 95.8153 28.4841L95.883 28.2804C96.0184 28.2804 96.1537 28.2804 96.3567 28.2804C96.6951 28.2804 97.0335 28.2126 97.3719 28.2126C98.5224 28.009 99.5376 27.1266 99.5376 25.9049C99.5376 24.0723 98.184 23.5972 96.8982 23.5972C96.1537 23.5972 95.68 23.6651 95.2062 23.8008V32.5565H95.2739Z" fill="white"/>
<path d="M107.185 32.5565C107.185 33.1673 107.253 33.6424 107.32 33.7782C107.388 33.9139 107.591 33.9818 107.997 34.0497L108.809 34.1176V34.5927C107.929 34.5927 107.185 34.5248 106.373 34.5248C105.561 34.5248 104.749 34.5248 103.937 34.5927V34.1176L104.749 34.0497C105.155 34.0497 105.358 33.9818 105.425 33.7782C105.561 33.5746 105.561 33.1673 105.561 32.5565V25.0904C105.561 24.4795 105.493 24.0044 105.425 23.8008C105.358 23.6651 105.155 23.5972 104.749 23.5293L103.937 23.4614V22.9863C104.816 23.0542 105.561 23.0542 106.373 23.0542C107.117 23.0542 107.929 23.0542 108.809 22.9863V23.4614L107.997 23.5293C107.591 23.5293 107.388 23.5972 107.32 23.8008C107.185 24.0044 107.185 24.4117 107.185 25.0904V28.6877L111.787 24.1402C112.058 23.8687 112.261 23.5972 112.261 23.4614V22.9863C112.802 22.9863 113.276 23.0542 113.75 23.0542C114.223 23.0542 114.697 22.9863 115.103 22.9863V23.4614H114.427C114.02 23.4614 113.547 23.7329 113.141 24.0723L108.742 28.0768L114.223 33.3031C114.63 33.7103 114.968 33.9818 115.239 33.9818H115.577V34.4569C115.239 34.4569 114.833 34.389 114.494 34.389C114.088 34.389 113.682 34.4569 113.208 34.4569L107.456 28.8913L107.32 29.0271V32.5565H107.185Z" fill="white"/>
<path d="M131.346 25.2264C131.346 24.6155 131.278 24.1404 131.211 24.0047C131.143 23.8689 130.94 23.801 130.534 23.7332L129.925 23.6653V23.1902C130.872 23.1902 131.82 23.2581 132.294 23.2581C133.241 23.2581 134.188 23.2581 135.474 23.1902H135.61C137.099 23.1902 138.452 23.801 138.452 25.4979C138.452 26.9911 137.031 28.0092 135.677 28.2128C137.369 28.2807 138.994 28.9594 138.994 30.9277C138.994 32.5567 137.843 34.7286 134.324 34.7286H134.121C133.512 34.7286 132.903 34.6608 132.294 34.6608C131.684 34.6608 131.075 34.7286 130.466 34.7286V34.3214L130.94 34.1857C131.211 34.0499 131.278 33.5748 131.278 33.0997V25.2264H131.346ZM132.903 28.0092C133.173 28.0092 133.579 28.0092 134.053 28.0092C135.474 28.0092 136.76 27.3983 136.76 25.7694C136.76 24.1404 135.677 23.801 134.256 23.801C133.782 23.801 133.309 23.801 132.835 23.9368V28.0092H132.903ZM132.903 33.9142C133.376 34.0499 133.85 34.0499 134.324 34.0499C136.151 34.0499 137.302 32.9639 137.302 31.1992C137.302 29.3667 136.151 28.62 133.985 28.62C133.512 28.62 133.173 28.6201 132.903 28.6879V33.9142Z" fill="white"/>
<path d="M140.821 28.9594C140.821 25.4979 143.19 22.8508 147.048 22.8508C150.635 22.8508 153.139 24.8192 153.139 28.5522C153.139 32.1495 150.364 35.0002 146.709 35.0002C143.325 35.0002 140.821 32.6925 140.821 28.9594ZM142.581 28.3486C142.581 31.2671 143.934 34.3214 147.251 34.3214C150.025 34.3214 151.379 32.1495 151.379 29.0952C151.379 25.7694 149.89 23.5974 146.777 23.5974C143.934 23.5974 142.581 25.6336 142.581 28.3486Z" fill="white"/>
<path d="M165.185 32.4888C165.32 32.8282 165.523 33.3033 165.726 33.6427C165.929 33.982 166.064 34.1857 166.403 34.1857L166.944 34.2535V34.7287C166.2 34.7287 165.455 34.6608 164.711 34.6608C164.102 34.6608 163.425 34.7287 162.478 34.7287V34.2535L163.29 34.1857C163.628 34.1857 163.966 34.0499 163.966 33.8463C163.966 33.6427 163.763 33.1676 163.628 32.7603L162.884 30.8599H158.079L157.605 31.9458C157.469 32.2852 156.996 33.4391 156.996 33.7106C156.996 34.0499 157.266 34.1178 157.808 34.1857L158.417 34.2535V34.7287C157.605 34.7287 156.996 34.6608 156.522 34.6608C155.845 34.6608 155.236 34.7287 154.627 34.7287V34.2535L155.236 34.1857C155.642 34.1178 155.98 33.7784 156.116 33.3712L159.094 26.6517C159.635 25.4979 160.176 24.2762 160.65 23.0544H161.192L165.185 32.4888ZM162.545 30.1811L160.447 25.2264L158.349 30.1811H162.545Z" fill="white"/>
<path d="M171.681 32.6924C171.681 33.3033 171.749 33.7784 171.816 33.9142C171.884 34.0499 172.087 34.1178 172.493 34.1857L173.305 34.2535V34.7286C172.426 34.7286 171.681 34.6608 170.869 34.6608C170.057 34.6608 169.245 34.6608 168.433 34.7286V34.2535L169.245 34.1857C169.651 34.1857 169.854 34.1178 169.922 33.9142C170.057 33.7105 170.057 33.3033 170.057 32.6924V25.2264C170.057 24.6155 170.057 24.1404 169.922 24.0047C169.854 23.8689 169.651 23.801 169.245 23.7332L168.568 23.6653V23.1902C169.448 23.1902 170.395 23.2581 171.41 23.2581C172.358 23.2581 173.373 23.2581 174.321 23.1902H174.456C177.028 23.1902 177.637 24.4798 177.637 25.7015C177.637 27.5341 176.012 28.6201 174.388 28.8915L178.178 33.8463C178.449 34.1857 178.787 34.2535 179.193 34.2535V34.7286C178.787 34.7286 178.381 34.6608 177.975 34.6608C177.569 34.6608 177.231 34.7286 176.825 34.7286C176.622 34.3893 176.351 34.1178 176.148 33.8463L173.102 29.706C172.832 29.3667 172.493 29.0273 172.223 28.6879L172.29 28.4843C172.426 28.4843 172.561 28.4843 172.764 28.4843C173.102 28.4843 173.441 28.4843 173.779 28.4164C174.93 28.2128 175.945 27.3305 175.945 26.1087C175.945 24.2762 174.591 23.801 173.305 23.801C172.561 23.801 172.087 23.8689 171.613 24.0047V32.6924H171.681Z" fill="white"/>
<path d="M181.968 25.2264C181.968 24.6155 181.901 24.1404 181.833 24.0047C181.765 23.8689 181.562 23.801 181.156 23.7332L180.479 23.6653V23.1902C181.63 23.1902 182.645 23.2581 183.728 23.2581C184.811 23.2581 185.894 23.2581 186.638 23.1902H186.841C190.157 23.1902 192.594 25.0906 192.594 28.2807C192.594 30.9956 191.037 33.3712 189.007 34.1857C188.059 34.5929 187.044 34.7965 185.758 34.7965H185.42C184.743 34.7965 183.999 34.7286 183.254 34.7286C182.51 34.7286 181.765 34.7965 181.021 34.7965V34.3893L181.562 34.1178C181.833 33.982 181.968 33.5748 181.968 33.0997V25.2264ZM183.525 33.9142C183.999 34.0499 184.879 34.0499 185.42 34.0499C186.232 34.0499 187.18 33.982 188.127 33.5748C189.954 32.6924 190.766 30.9956 190.766 28.7558C190.766 24.6155 188.398 23.8689 185.42 23.8689C184.879 23.8689 183.999 23.8689 183.525 24.0047V33.9142Z" fill="white"/>
<path d="M69.5566 7.57917C69.5566 6.90044 69.4889 6.42533 69.4212 6.22171C69.2859 6.01809 69.0828 5.95022 68.6768 5.88234H68V5.33936C69.0152 5.33936 70.0303 5.40723 70.6394 5.40723C71.7223 5.40723 72.7374 5.33936 74.1586 5.33936H74.294C75.9182 5.33936 77.4071 5.95022 77.4071 7.85067C77.4071 9.5475 75.8506 10.5656 74.3617 10.8371V10.905C76.189 10.9728 78.0162 11.7194 78.0162 13.8914C78.0162 15.6561 76.7304 18.0995 72.9404 18.0995H72.6697C71.993 18.0995 71.3162 18.0317 70.7071 18.0317C70.0303 18.0317 69.3535 18.0317 68.7445 18.0995V17.6923L69.2182 17.4887C69.5566 17.3529 69.6243 16.8099 69.6243 16.3348V7.57917H69.5566ZM71.3162 10.6335C71.6546 10.6335 72.0606 10.7013 72.6021 10.7013C74.1586 10.7013 75.5799 10.0226 75.5799 8.25791C75.5799 6.4932 74.3617 6.08596 72.8051 6.08596C72.3313 6.08596 71.7899 6.08596 71.2485 6.22171V10.6335H71.3162ZM71.3162 17.0814C71.8576 17.2172 72.3313 17.2172 72.8728 17.2172C74.9031 17.2172 76.189 16.0633 76.189 14.095C76.189 12.0588 74.9031 11.3122 72.6021 11.3122C72.0606 11.3122 71.7223 11.3122 71.3839 11.3801V17.0814H71.3162Z" fill="white"/>
<path d="M83.4979 7.57917C83.4979 6.90044 83.4302 6.42533 83.3625 6.22171C83.2272 6.01809 83.0242 5.95022 82.6181 5.95022L81.7383 5.88234V5.33936C82.6858 5.40723 83.5656 5.40723 84.4454 5.40723C85.2575 5.40723 86.1373 5.40723 87.0848 5.33936V5.88234L86.205 5.95022C85.7989 5.95022 85.5282 6.01809 85.4605 6.22171C85.3252 6.42533 85.3252 6.90044 85.3252 7.57917V13.8235C85.3252 16.4027 86.6787 17.1493 89.0474 17.1493C91.0101 17.1493 92.7697 16.4027 92.7697 13.3484V7.57917C92.7697 6.90044 92.702 6.42533 92.6343 6.22171C92.499 6.01809 92.2959 5.95022 91.8899 5.95022L91.0101 5.88234V5.33936C91.7545 5.33936 92.4313 5.40723 93.1081 5.40723C93.8525 5.40723 94.4616 5.33936 95.2737 5.33936V5.88234L94.4616 5.95022C94.0556 6.01809 93.7848 6.01809 93.7172 6.22171C93.5818 6.42533 93.5818 6.90044 93.5818 7.57917V12.8733C93.5818 16.8099 92.0929 18.371 88.4383 18.371C85.3252 18.371 83.4979 17.4208 83.4979 14.095V7.57917Z" fill="white"/>
<path d="M101.839 15.724C101.839 16.4027 101.907 16.8778 101.974 17.0814C102.11 17.2851 102.313 17.3529 102.719 17.3529L103.598 17.4208V17.9638C102.651 17.8959 101.771 17.8959 100.959 17.8959C100.079 17.8959 99.1994 17.8959 98.252 17.9638V17.4208L99.1318 17.3529C99.5378 17.3529 99.8085 17.2851 99.8762 17.0814C100.012 16.8778 100.012 16.4027 100.012 15.724V7.57917C100.012 6.90044 99.9439 6.42533 99.8762 6.22171C99.7409 6.01809 99.5378 5.95022 99.1318 5.95022L98.455 5.88234V5.33936C99.4025 5.33936 100.485 5.40723 101.568 5.40723C102.651 5.40723 103.666 5.33936 104.749 5.33936H104.884C107.659 5.33936 108.404 6.76469 108.404 8.05429C108.404 10.0226 106.644 11.2443 104.884 11.5837L109.013 17.0136C109.283 17.3529 109.689 17.4208 110.095 17.4887V18.0317C109.622 18.0317 109.216 17.9638 108.81 17.9638C108.404 17.9638 107.997 17.9638 107.591 18.0317C107.388 17.6923 107.05 17.3529 106.847 17.0136L103.463 12.4661C103.192 12.1267 102.854 11.7873 102.516 11.3801L102.651 11.1765C102.786 11.1765 102.989 11.1765 103.125 11.1765C103.463 11.1765 103.869 11.1086 104.208 11.1086C105.493 10.8371 106.576 9.88687 106.576 8.5294C106.576 6.56107 105.087 6.01809 103.666 6.01809C102.854 6.01809 102.313 6.08596 101.839 6.22171V15.724Z" fill="white"/>
<path d="M120.179 8.32579L120.111 7.30769C120.044 6.83258 119.976 6.62896 119.299 6.22172C118.758 5.88235 118.013 5.81448 117.337 5.81448C116.051 5.81448 114.63 6.69683 114.63 8.46154C114.63 9.68326 115.374 10.4977 117.607 10.7014C120.179 10.9728 121.803 11.5837 121.803 13.6878C121.803 16.81 119.029 18.3032 116.321 18.3032C115.036 18.3032 113.817 17.8959 113.208 17.6244C113.344 16.9457 113.344 16.1991 113.344 15.5204V14.8416H113.953L114.088 16.0633C114.156 16.81 115.645 17.5566 117.066 17.5566C118.69 17.5566 120.314 16.5385 120.314 14.7059C120.314 12.9412 118.961 12.4661 117.134 12.2624C114.291 11.9231 113.141 11.0407 113.141 9.14027C113.141 6.28959 115.645 5 117.81 5C119.299 5 120.382 5.47511 121.127 5.74661C120.856 6.69683 120.788 7.51131 120.788 8.32579H120.179Z" fill="white"/>
<path d="M133.85 8.19004L130.669 16.267C130.466 16.8778 130.195 17.4887 129.992 18.1674H129.112C128.977 17.4887 128.841 16.9457 128.706 16.267L126.54 6.83257C126.337 6.0181 125.999 5.95022 125.661 5.95022L125.119 5.88235V5.33936C125.864 5.33936 126.608 5.40724 127.42 5.40724C128.232 5.40724 128.977 5.33936 129.721 5.33936V5.88235L128.977 5.95022C128.638 6.0181 128.3 6.0181 128.3 6.56108C128.3 6.69683 128.3 6.90045 128.368 7.10407L130.195 15.2489H130.263L132.496 9.54751C133.037 8.12217 133.646 6.62895 134.12 5.13574H134.729C134.865 5.88235 135.203 6.69683 135.474 7.44343L138.316 15.3846H138.384L140.753 6.49321C140.753 6.42533 140.753 6.35746 140.753 6.28959C140.753 6.0181 140.482 5.95022 139.873 5.88235H139.061V5.33936C139.67 5.33936 140.347 5.40724 140.956 5.40724C141.632 5.40724 142.242 5.33936 142.851 5.33936V5.88235L142.241 5.95022C141.835 6.0181 141.632 6.15384 141.565 6.49321L138.79 16.3348C138.655 16.8778 138.452 17.4208 138.316 18.1674H137.436C137.03 16.7421 136.624 15.6561 136.151 14.4344L133.85 8.19004Z" fill="white"/>
<path d="M145.896 11.6516C145.896 7.91855 148.536 5 152.732 5C156.657 5 159.432 7.17195 159.432 11.2443C159.432 15.181 156.386 18.3032 152.394 18.3032C148.671 18.3032 145.896 15.724 145.896 11.6516ZM147.859 10.9729C147.859 14.1629 149.348 17.5566 152.935 17.5566C155.98 17.5566 157.469 15.181 157.469 11.8552C157.469 8.25792 155.845 5.81448 152.461 5.81448C149.28 5.74661 147.859 7.98643 147.859 10.9729Z" fill="white"/>
<path d="M162.748 11.6516C162.748 7.91855 165.387 5 169.583 5C173.509 5 176.216 7.17195 176.216 11.2443C176.216 15.181 173.17 18.3032 169.177 18.3032C165.523 18.3032 162.748 15.724 162.748 11.6516ZM164.711 10.9729C164.711 14.1629 166.2 17.5566 169.786 17.5566C172.832 17.5566 174.321 15.181 174.321 11.8552C174.321 8.25792 172.697 5.81448 169.313 5.81448C166.132 5.74661 164.711 7.98643 164.711 10.9729Z" fill="white"/>
<path d="M181.292 7.57917C181.292 6.90044 181.225 6.42533 181.157 6.22171C181.022 6.01809 180.818 5.95022 180.412 5.95022L179.668 5.88234V5.33936C180.886 5.33936 182.037 5.40723 183.255 5.40723C184.473 5.40723 185.624 5.33936 186.436 5.33936H186.706C190.293 5.33936 193 7.44343 193 10.905C193 13.8914 191.308 16.4706 189.075 17.4208C188.06 17.828 186.977 18.0317 185.556 18.0317H185.082C184.338 18.0317 183.526 17.9638 182.713 17.9638C181.901 17.9638 181.089 17.9638 180.209 18.0317V17.6244L180.751 17.3529C181.089 17.2172 181.225 16.7421 181.225 16.267V7.57917H181.292ZM182.984 17.0814C183.526 17.2172 184.473 17.2172 185.082 17.2172C185.962 17.2172 187.045 17.1493 188.06 16.6742C190.09 15.724 190.97 13.8914 190.97 11.3801C190.97 6.83257 188.398 6.01809 185.082 6.01809C184.473 6.01809 183.526 6.01809 182.984 6.15384V17.0814Z" fill="white"/>
<path d="M125.797 28.9593C125.797 30.5204 124.511 31.7421 123.022 31.7421C121.465 31.7421 120.247 30.4525 120.247 28.9593C120.247 27.3982 121.533 26.1765 123.022 26.1765C124.511 26.1765 125.797 27.3982 125.797 28.9593Z" fill="white"/>
<path d="M0 5.4677C0 5.4677 8.69853 7.00942 11.4281 8.40289C14.3676 9.91496 15.7773 10.2707 18.6568 10.3893C21.5663 10.5079 24.5958 10.5969 26.3055 13.7099C28.0153 16.823 29.215 19.6693 30.5048 20.5291C31.7946 21.4185 32.9944 20.5587 33.1444 19.5507C33.2644 18.5426 33.9243 10.9823 34.5541 8.84762C35.424 5.91243 37.1637 2.91794 38.6335 1.67271C40.1032 0.397833 40.7031 -0.165486 42.1729 0.0420526C43.6426 0.249591 43.8826 0.397833 43.8826 0.397833C43.8826 0.397833 40.2532 0.931504 39.4433 2.17673C38.6334 3.42197 36.5638 5.88278 36.0239 9.29234C35.514 12.7019 35.8739 15.5778 35.8739 16.5562C35.8739 17.5346 36.0839 18.7205 35.9339 20.1733C35.7839 21.6557 35.574 22.8416 35.574 22.8416C35.574 22.8416 36.6238 20.3215 36.8338 18.2461C37.0437 16.1411 38.5435 13.2949 40.5231 12.02C42.5328 10.7748 43.8526 9.29234 47.8419 7.89887C51.8312 6.50539 54.1408 6.86118 55.9705 6.65364C57.8302 6.4461 59 6.23856 59 6.23856C59 6.23856 57.2903 7.63203 55.5206 8.66973C53.7509 9.70742 49.2217 11.3381 47.7519 13.0577C46.2822 14.8069 44.9324 17.8014 43.2227 20.114C41.513 22.4266 39.6833 23.82 37.7336 25.2135C35.8139 26.607 35.214 25.9251 33.8043 27.8819C32.3945 29.8387 30.0249 31.1728 28.2552 32.3588C26.4855 33.5447 23.9059 36.7467 23.1561 37.6065C22.4062 38.4367 21.3864 39 19.3167 38.9407C17.2471 38.8814 13.9176 39 13.9176 39C13.9176 39 17.0971 37.1915 18.5069 35.798C19.9166 34.4045 22.4962 30.9653 23.1561 29.6608C23.816 28.3266 24.0559 27.6447 24.0559 27.6447C24.0559 27.6447 20.5765 27.3778 18.7168 25.6879C16.9471 23.9683 15.7773 22.5748 14.7875 20.2622C13.8277 17.9497 12.5079 15.6074 8.42857 13.4135C5.69903 11.9607 5.39909 11.2491 3.98932 9.70742C2.60956 8.19535 2.06965 7.21696 1.34977 6.65364C0.599898 6.09032 0 5.4677 0 5.4677Z" fill="white"/>
</svg>
