<svg width="26" height="26" viewBox="0 0 26 26" fill="none" xmlns="http://www.w3.org/2000/svg">
<path d="M1 5.51411L0.629659 4.86192C0.394986 4.99518 0.25 5.24424 0.25 5.51411H1ZM8.94953 1L9.31722 0.346315C9.08796 0.217363 8.80791 0.217932 8.57919 0.347813L8.94953 1ZM16.9748 5.51411L16.6071 6.16779C16.8354 6.29621 17.1141 6.29621 17.3425 6.16779L16.9748 5.51411ZM25 1H25.75C25.75 0.733553 25.6086 0.48711 25.3786 0.352594C25.1486 0.218079 24.8645 0.215689 24.6323 0.346315L25 1ZM25 20.4107L25.3723 21.0617C25.6059 20.9282 25.75 20.6797 25.75 20.4107H25ZM16.9748 25L16.6024 25.6511C16.8331 25.783 17.1164 25.783 17.3471 25.6511L16.9748 25ZM8.94953 20.4107L9.32185 19.7596C9.09021 19.6271 8.80564 19.6277 8.57455 19.7611L8.94953 20.4107ZM1 25H0.25C0.25 25.2679 0.392945 25.5155 0.62499 25.6495C0.857036 25.7835 1.14293 25.7835 1.37498 25.6495L1 25ZM1.37034 6.16629L9.31987 1.65219L8.57919 0.347813L0.629659 4.86192L1.37034 6.16629ZM8.58184 1.65368L16.6071 6.16779L17.3425 4.86042L9.31722 0.346315L8.58184 1.65368ZM17.3425 6.16779L25.3677 1.65368L24.6323 0.346315L16.6071 4.86042L17.3425 6.16779ZM24.25 1V20.4107H25.75V1H24.25ZM24.6277 19.7596L16.6024 24.3489L17.3471 25.6511L25.3723 21.0617L24.6277 19.7596ZM17.3471 24.3489L9.32185 19.7596L8.57721 21.0617L16.6024 25.6511L17.3471 24.3489ZM8.57455 19.7611L0.625019 24.3505L1.37498 25.6495L9.32451 21.0602L8.57455 19.7611ZM8.19953 1.00003L8.2002 20.4859L9.7002 20.4859L9.69953 0.999974L8.19953 1.00003ZM16.2254 5.43887V24.9248H17.7254V5.43887H16.2254ZM1.75 25V5.51411H0.25V25H1.75Z" fill="white"/>
</svg>
