<svg width="29" height="25" viewBox="0 0 29 25" fill="none" xmlns="http://www.w3.org/2000/svg">
<path d="M27.9477 6.927L28.6902 7.03295L28.6977 6.98024V6.927H27.9477ZM27.5443 9.75392L28.2841 9.87709L28.2856 9.8685L28.2868 9.85988L27.5443 9.75392ZM26.5761 10.5616L26.4648 11.3033L26.5201 11.3116H26.5761V10.5616ZM21.7352 9.83469L21.6118 10.5746L21.6239 10.5764L21.7352 9.83469ZM20.9284 8.78469L21.6683 8.90787L21.67 8.89693L20.9284 8.78469ZM18.5886 4.98854L18.7391 4.25371L18.7291 4.25181L18.5886 4.98854ZM8.18068 8.78469L7.43865 8.8937L7.43969 8.90079L7.44086 8.90786L8.18068 8.78469ZM7.37386 9.83469L7.26768 9.09223L7.26249 9.09301L7.37386 9.83469ZM2.53295 10.5616V11.3116H2.58895L2.64433 11.3033L2.53295 10.5616ZM1.56477 9.75392H2.31477V9.67974L2.30024 9.60699L1.56477 9.75392ZM1 6.927H0.25V7.00118L0.264534 7.07393L1 6.927ZM14.4739 1.19238L14.492 0.442601L14.4739 0.442165L14.4558 0.442601L14.4739 1.19238ZM9.55227 15.4078H8.80227H9.55227ZM23.8994 12.0209C23.7686 11.6279 23.3439 11.4154 22.9509 11.5462C22.5579 11.6771 22.3454 12.1018 22.4763 12.4948L23.8994 12.0209ZM6.55061 12.5014C6.68513 12.1096 6.4766 11.683 6.08484 11.5485C5.69308 11.4139 5.26644 11.6225 5.13192 12.0142L6.55061 12.5014ZM27.2053 6.82104L26.8018 9.64797L28.2868 9.85988L28.6902 7.03295L27.2053 6.82104ZM26.8045 9.63075C26.7935 9.69695 26.7624 9.74471 26.7274 9.77533C26.6891 9.80886 26.6593 9.81161 26.6568 9.81161V11.3116C27.4483 11.3116 28.1468 10.7019 28.2841 9.87709L26.8045 9.63075ZM26.6568 9.81161H26.5761V11.3116H26.6568V9.81161ZM26.6875 9.81993L21.8466 9.09301L21.6239 10.5764L26.4648 11.3033L26.6875 9.81993ZM21.8587 9.09492C21.8185 9.08821 21.7564 9.05694 21.7089 8.99671C21.6875 8.9695 21.6763 8.94519 21.6714 8.92872C21.6691 8.92084 21.6684 8.91541 21.6682 8.9124C21.668 8.90953 21.6682 8.90822 21.6682 8.90786L20.1886 8.66152C20.0291 9.61929 20.7871 10.4369 21.6118 10.5745L21.8587 9.09492ZM21.67 8.89693C21.7704 8.23303 21.8818 7.79046 21.9702 7.30314C22.0457 6.88664 22.1187 6.37677 21.9456 5.90254C21.75 5.36659 21.317 5.04756 20.8081 4.82592C20.312 4.60988 19.6283 4.43585 18.7391 4.25378L18.4382 5.72329C19.324 5.90468 19.8707 6.05374 20.2091 6.20115C20.3727 6.27241 20.4558 6.33009 20.4964 6.36629C20.5294 6.39566 20.534 6.40984 20.5365 6.41684C20.555 6.46761 20.5725 6.6039 20.4943 7.03548C20.4288 7.39623 20.2881 8.00366 20.1869 8.67246L21.67 8.89693ZM18.7291 4.25181C16.9755 3.91742 14.909 3.83469 14.5545 3.83469V5.33469C14.8456 5.33469 16.8132 5.4135 18.4482 5.72526L18.7291 4.25181ZM14.5545 3.83469C14.1963 3.83469 12.2139 3.91797 10.3861 4.25066L10.6548 5.72641C12.377 5.41294 14.2673 5.33469 14.5545 5.33469V3.83469ZM10.3861 4.25066C9.49819 4.41228 8.81296 4.56974 8.31518 4.77449C7.80274 4.98526 7.36168 5.29899 7.1635 5.84196C6.99052 6.3159 7.06342 6.83159 7.13836 7.25469C7.22579 7.74825 7.33841 8.21136 7.43865 8.8937L8.92272 8.67569C8.82125 7.98494 8.68174 7.36777 8.61537 6.99306C8.53651 6.54788 8.55394 6.40733 8.57258 6.35626C8.5744 6.35128 8.57688 6.34068 8.60592 6.31542C8.64329 6.28291 8.72333 6.22854 8.88578 6.16172C9.22255 6.0232 9.76771 5.88787 10.6548 5.72641L10.3861 4.25066ZM7.44086 8.90786C7.44755 8.948 7.43782 8.98594 7.4153 9.01655C7.39557 9.04335 7.35457 9.07982 7.26768 9.09225L7.48004 10.5771C8.4578 10.4373 9.07093 9.56506 8.9205 8.66152L7.44086 8.90786ZM7.26249 9.09301L2.42158 9.81993L2.64433 11.3033L7.48524 10.5764L7.26249 9.09301ZM2.53295 9.81161H2.45227V11.3116H2.53295V9.81161ZM2.45227 9.81161C2.37422 9.81161 2.33295 9.78565 2.32117 9.77533C2.31591 9.77073 2.31575 9.769 2.31647 9.77056C2.3175 9.7728 2.31477 9.76912 2.31477 9.75392H0.814773C0.814773 10.743 1.65037 11.3116 2.45227 11.3116V9.81161ZM2.30024 9.60699L1.73547 6.78006L0.264534 7.07393L0.829307 9.90086L2.30024 9.60699ZM1.75 6.927C1.75 6.92684 1.75 6.92668 1.75 6.92652C1.75 6.92637 1.75 6.92621 1.75 6.92605C1.75 6.92589 1.75 6.92573 1.75 6.92557C1.75 6.92541 1.75 6.92525 1.75 6.92509C1.75 6.92493 1.75 6.92477 1.75 6.92461C1.75 6.92445 1.75 6.92429 1.75 6.92413C1.75 6.92396 1.75 6.9238 1.75 6.92364C1.75 6.92348 1.75 6.92332 1.75 6.92315C1.75 6.92299 1.75 6.92283 1.75 6.92267C1.75 6.9225 1.75 6.92234 1.75 6.92217C1.75 6.92201 1.75 6.92185 1.75 6.92168C1.75 6.92152 1.75 6.92135 1.75 6.92119C1.75 6.92102 1.75 6.92086 1.75 6.92069C1.75 6.92053 1.75 6.92036 1.75 6.9202C1.75 6.92003 1.75 6.91986 1.75 6.9197C1.75 6.91953 1.75 6.91936 1.75 6.91919C1.75 6.91903 1.75 6.91886 1.75 6.91869C1.75 6.91852 1.75 6.91836 1.75 6.91819C1.75 6.91802 1.75 6.91785 1.75 6.91768C1.75 6.91751 1.75 6.91734 1.75 6.91717C1.75 6.917 1.75 6.91683 1.75 6.91666C1.75 6.91649 1.75 6.91632 1.75 6.91615C1.75 6.91598 1.75 6.91581 1.75 6.91564C1.75 6.91547 1.75 6.9153 1.75 6.91512C1.75 6.91495 1.75 6.91478 1.75 6.91461C1.75 6.91444 1.75 6.91426 1.75 6.91409C1.75 6.91392 1.75 6.91374 1.75 6.91357C1.75 6.9134 1.75 6.91322 1.75 6.91305C1.75 6.91288 1.75 6.9127 1.75 6.91253C1.75 6.91235 1.75 6.91218 1.75 6.912C1.75 6.91183 1.75 6.91165 1.75 6.91148C1.75 6.9113 1.75 6.91112 1.75 6.91095C1.75 6.91077 1.75 6.91059 1.75 6.91042C1.75 6.91024 1.75 6.91006 1.75 6.90989C1.75 6.90971 1.75 6.90953 1.75 6.90935C1.75 6.90918 1.75 6.909 1.75 6.90882C1.75 6.90864 1.75 6.90846 1.75 6.90828C1.75 6.9081 1.75 6.90793 1.75 6.90775C1.75 6.90757 1.75 6.90739 1.75 6.90721C1.75 6.90703 1.75 6.90685 1.75 6.90667C1.75 6.90649 1.75 6.90631 1.75 6.90612C1.75 6.90594 1.75 6.90576 1.75 6.90558C1.75 6.9054 1.75 6.90522 1.75 6.90504C1.75 6.90485 1.75 6.90467 1.75 6.90449C1.75 6.90431 1.75 6.90412 1.75 6.90394C1.75 6.90376 1.75 6.90357 1.75 6.90339C1.75 6.90321 1.75 6.90302 1.75 6.90284C1.75 6.90265 1.75 6.90247 1.75 6.90229C1.75 6.9021 1.75 6.90192 1.75 6.90173C1.75 6.90155 1.75 6.90136 1.75 6.90118C1.75 6.90099 1.75 6.9008 1.75 6.90062C1.75 6.90043 1.75 6.90025 1.75 6.90006C1.75 6.89987 1.75 6.89969 1.75 6.8995C1.75 6.89931 1.75 6.89912 1.75 6.89894C1.75 6.89875 1.75 6.89856 1.75 6.89837C1.75 6.89819 1.75 6.898 1.75 6.89781C1.75 6.89762 1.75 6.89743 1.75 6.89724C1.75 6.89705 1.75 6.89686 1.75 6.89668C1.75 6.89649 1.75 6.8963 1.75 6.89611C1.75 6.89592 1.75 6.89573 1.75 6.89554C1.75 6.89535 1.75 6.89515 1.75 6.89496C1.75 6.89477 1.75 6.89458 1.75 6.89439C1.75 6.8942 1.75 6.89401 1.75 6.89382C1.75 6.89362 1.75 6.89343 1.75 6.89324C1.75 6.89305 1.75 6.89285 1.75 6.89266C1.75 6.89247 1.75 6.89228 1.75 6.89208C1.75 6.89189 1.75 6.8917 1.75 6.8915C1.75 6.89131 1.75 6.89112 1.75 6.89092C1.75 6.89073 1.75 6.89053 1.75 6.89034C1.75 6.89014 1.75 6.88995 1.75 6.88975C1.75 6.88956 1.75 6.88936 1.75 6.88917C1.75 6.88897 1.75 6.88878 1.75 6.88858C1.75 6.88839 1.75 6.88819 1.75 6.88799C1.75 6.8878 1.75 6.8876 1.75 6.8874C1.75 6.88721 1.75 6.88701 1.75 6.88681C1.75 6.88662 1.75 6.88642 1.75 6.88622C1.75 6.88602 1.75 6.88583 1.75 6.88563C1.75 6.88543 1.75 6.88523 1.75 6.88503C1.75 6.88483 1.75 6.88463 1.75 6.88444C1.75 6.88424 1.75 6.88404 1.75 6.88384C1.75 6.88364 1.75 6.88344 1.75 6.88324C1.75 6.88304 1.75 6.88284 1.75 6.88264C1.75 6.88244 1.75 6.88224 1.75 6.88204C1.75 6.88184 1.75 6.88164 1.75 6.88144C1.75 6.88124 1.75 6.88103 1.75 6.88083C1.75 6.88063 1.75 6.88043 1.75 6.88023C1.75 6.88003 1.75 6.87982 1.75 6.87962C1.75 6.87942 1.75 6.87922 1.75 6.87901C1.75 6.87881 1.75 6.87861 1.75 6.87841C1.75 6.8782 1.75 6.878 1.75 6.8778C1.75 6.87759 1.75 6.87739 1.75 6.87718C1.75 6.87698 1.75 6.87678 1.75 6.87657C1.75 6.87637 1.75 6.87616 1.75 6.87596C1.75 6.87575 1.75 6.87555 1.75 6.87534C1.75 6.87514 1.75 6.87493 1.75 6.87473C1.75 6.87452 1.75 6.87432 1.75 6.87411C1.75 6.87391 1.75 6.8737 1.75 6.87349C1.75 6.87329 1.75 6.87308 1.75 6.87287C1.75 6.87267 1.75 6.87246 1.75 6.87225C1.75 6.87205 1.75 6.87184 1.75 6.87163C1.75 6.87143 1.75 6.87122 1.75 6.87101C1.75 6.8708 1.75 6.87059 1.75 6.87039C1.75 6.87018 1.75 6.86997 1.75 6.86976C1.75 6.86955 1.75 6.86934 1.75 6.86914C1.75 6.86893 1.75 6.86872 1.75 6.86851C1.75 6.8683 1.75 6.86809 1.75 6.86788C1.75 6.86767 1.75 6.86746 1.75 6.86725C1.75 6.86704 1.75 6.86683 1.75 6.86662C1.75 6.86641 1.75 6.8662 1.75 6.86599C1.75 6.86578 1.75 6.86557 1.75 6.86536C1.75 6.86515 1.75 6.86494 1.75 6.86472C1.75 6.86451 1.75 6.8643 1.75 6.86409C1.75 6.86388 1.75 6.86367 1.75 6.86345C1.75 6.86324 1.75 6.86303 1.75 6.86282C1.75 6.86261 1.75 6.86239 1.75 6.86218C1.75 6.86197 1.75 6.86175 1.75 6.86154C1.75 6.86133 1.75 6.86112 1.75 6.8609C1.75 6.86069 1.75 6.86048 1.75 6.86026C1.75 6.86005 1.75 6.85983 1.75 6.85962C1.75 6.85941 1.75 6.85919 1.75 6.85898C1.75 6.85876 1.75 6.85855 1.75 6.85833C1.75 6.85812 1.75 6.8579 1.75 6.85769C1.75 6.85747 1.75 6.85726 1.75 6.85704C1.75 6.85683 1.75 6.85661 1.75 6.8564C1.75 6.85618 1.75 6.85597 1.75 6.85575C1.75 6.85553 1.75 6.85532 1.75 6.8551C1.75 6.85488 1.75 6.85467 1.75 6.85445C1.75 6.85424 1.75 6.85402 1.75 6.8538C1.75 6.85358 1.75 6.85337 1.75 6.85315C1.75 6.85293 1.75 6.85272 1.75 6.8525C1.75 6.85228 1.75 6.85206 1.75 6.85185C1.75 6.85163 1.75 6.85141 1.75 6.85119C1.75 6.85097 1.75 6.85075 1.75 6.85054C1.75 6.85032 1.75 6.8501 1.75 6.84988C1.75 6.84966 1.75 6.84944 1.75 6.84922C1.75 6.84901 1.75 6.84879 1.75 6.84857C1.75 6.84835 1.75 6.84813 1.75 6.84791C1.75 6.84769 1.75 6.84747 1.75 6.84725C1.75 6.84703 1.75 6.84681 1.75 6.84659C1.75 6.84637 1.75 6.84615 1.75 6.84593C1.75 6.84571 1.75 6.84549 1.75 6.84527C1.75 6.84505 1.75 6.84482 1.75 6.8446C1.75 6.84438 1.75 6.84416 1.75 6.84394C1.75 6.84372 1.75 6.8435 1.75 6.84328C1.75 6.84305 1.75 6.84283 1.75 6.84261C1.75 6.84239 1.75 6.84217 1.75 6.84195C1.75 6.84172 1.75 6.8415 1.75 6.84128C1.75 6.84106 1.75 6.84083 1.75 6.84061C1.75 6.84039 1.75 6.84017 1.75 6.83994C1.75 6.83972 1.75 6.8395 1.75 6.83927C1.75 6.83905 1.75 6.83883 1.75 6.8386C1.75 6.83838 1.75 6.83816 1.75 6.83793C1.75 6.83771 1.75 6.83749 1.75 6.83726C1.75 6.83704 1.75 6.83682 1.75 6.83659C1.75 6.83637 1.75 6.83614 1.75 6.83592C1.75 6.83569 1.75 6.83547 1.75 6.83525C1.75 6.83502 1.75 6.8348 1.75 6.83457C1.75 6.83435 1.75 6.83412 1.75 6.8339C1.75 6.83367 1.75 6.83345 1.75 6.83322C1.75 6.833 1.75 6.83277 1.75 6.83254C1.75 6.83232 1.75 6.83209 1.75 6.83187C1.75 6.83164 1.75 6.83142 1.75 6.83119C1.75 6.83096 1.75 6.83074 1.75 6.83051C1.75 6.83029 1.75 6.83006 1.75 6.82983C1.75 6.82961 1.75 6.82938 1.75 6.82915C1.75 6.82893 1.75 6.8287 1.75 6.82847C1.75 6.82825 1.75 6.82802 1.75 6.82779C1.75 6.82756 1.75 6.82734 1.75 6.82711C1.75 6.82688 1.75 6.82665 1.75 6.82643C1.75 6.8262 1.75 6.82597 1.75 6.82574C1.75 6.82552 1.75 6.82529 1.75 6.82506C1.75 6.82483 1.75 6.82461 1.75 6.82438C1.75 6.82415 1.75 6.82392 1.75 6.82369C1.75 6.82346 1.75 6.82324 1.75 6.82301C1.75 6.82278 1.75 6.82255 1.75 6.82232C1.75 6.82209 1.75 6.82186 1.75 6.82163C1.75 6.82141 1.75 6.82118 1.75 6.82095C1.75 6.82072 1.75 6.82049 1.75 6.82026C1.75 6.82003 1.75 6.8198 1.75 6.81957C1.75 6.81934 1.75 6.81911 1.75 6.81888C1.75 6.81865 1.75 6.81842 1.75 6.81819C1.75 6.81796 1.75 6.81773 1.75 6.8175C1.75 6.81727 1.75 6.81704 1.75 6.81681C1.75 6.81658 1.75 6.81635 1.75 6.81612C1.75 6.81589 1.75 6.81566 1.75 6.81543C1.75 6.8152 1.75 6.81497 1.75 6.81474C1.75 6.81451 1.75 6.81428 1.75 6.81405C1.75 6.81382 1.75 6.81358 1.75 6.81335C1.75 6.81312 1.75 6.81289 1.75 6.81266C1.75 6.81243 1.75 6.8122 1.75 6.81197C1.75 6.81174 1.75 6.8115 1.75 6.81127C1.75 6.81104 1.75 6.81081 1.75 6.81058C1.75 6.81035 1.75 6.81011 1.75 6.80988C1.75 6.80965 1.75 6.80942 1.75 6.80919C1.75 6.80895 1.75 6.80872 1.75 6.80849C1.75 6.80826 1.75 6.80803 1.75 6.80779C1.75 6.80756 1.75 6.80733 1.75 6.8071C1.75 6.80686 1.75 6.80663 1.75 6.8064C1.75 6.80617 1.75 6.80593 1.75 6.8057C1.75 6.80547 1.75 6.80524 1.75 6.805C1.75 6.80477 1.75 6.80454 1.75 6.8043C1.75 6.80407 1.75 6.80384 1.75 6.8036C1.75 6.80337 1.75 6.80314 1.75 6.8029C1.75 6.80267 1.75 6.80244 1.75 6.80221C1.75 6.80197 1.75 6.80174 1.75 6.8015C1.75 6.80127 1.75 6.80104 1.75 6.8008C1.75 6.80057 1.75 6.80034 1.75 6.8001C1.75 6.79987 1.75 6.79964 1.75 6.7994C1.75 6.79917 1.75 6.79893 1.75 6.7987C1.75 6.79847 1.75 6.79823 1.75 6.798C1.75 6.79776 1.75 6.79753 1.75 6.7973C1.75 6.79706 1.75 6.79683 1.75 6.79659C1.75 6.79636 1.75 6.79612 1.75 6.79589C1.75 6.79566 1.75 6.79542 1.75 6.79519C1.75 6.79495 1.75 6.79472 1.75 6.79448C1.75 6.79425 1.75 6.79401 1.75 6.79378C1.75 6.79354 1.75 6.79331 1.75 6.79307C1.75 6.79284 1.75 6.7926 1.75 6.79237C1.75 6.79213 1.75 6.7919 1.75 6.79167C1.75 6.79143 1.75 6.79119 1.75 6.79096C1.75 6.79072 1.75 6.79049 1.75 6.79025C1.75 6.79002 1.75 6.78978 1.75 6.78955C1.75 6.78931 1.75 6.78908 1.75 6.78884C1.75 6.78861 1.75 6.78837 1.75 6.78814C1.75 6.7879 1.75 6.78767 1.75 6.78743C1.75 6.7872 1.75 6.78696 1.75 6.78672C1.75 6.78649 1.75 6.78625 1.75 6.78602C1.75 6.78578 1.75 6.78555 1.75 6.78531C1.75 6.78507 1.75 6.78484 1.75 6.7846C1.75 6.78437 1.75 6.78413 1.75 6.7839C1.75 6.78366 1.75 6.78342 1.75 6.78319C1.75 6.78295 1.75 6.78272 1.75 6.78248C1.75 6.78224 1.75 6.78201 1.75 6.78177C1.75 6.78154 1.75 6.7813 1.75 6.78106C1.75 6.78083 1.75 6.78059 1.75 6.78036C1.75 6.78012 1.75 6.77988 1.75 6.77965C1.75 6.77941 1.75 6.77918 1.75 6.77894C1.75 6.7787 1.75 6.77847 1.75 6.77823C1.75 6.77799 1.75 6.77776 1.75 6.77752C1.75 6.77729 1.75 6.77705 1.75 6.77681C1.75 6.77658 1.75 6.77634 1.75 6.7761C1.75 6.77587 1.75 6.77563 1.75 6.77539C1.75 6.77516 1.75 6.77492 1.75 6.77469C1.75 6.77445 1.75 6.77421 1.75 6.77398C1.75 6.77374 1.75 6.7735 1.75 6.77327C1.75 6.77303 1.75 6.77279 1.75 6.77256C1.75 6.77232 1.75 6.77208 1.75 6.77185C1.75 6.77161 1.75 6.77138 1.75 6.77114C1.75 6.7709 1.75 6.77067 1.75 6.77043C1.75 6.77019 1.75 6.76996 1.75 6.76972C1.75 6.76948 1.75 6.76925 1.75 6.76901C1.75 6.76877 1.75 6.76854 1.75 6.7683C1.75 6.76806 1.75 6.76783 1.75 6.76759C1.75 6.76735 1.75 6.76712 1.75 6.76688C1.75 6.76664 1.75 6.76641 1.75 6.76617C1.75 6.76593 1.75 6.7657 1.75 6.76546C1.75 6.76522 1.75 6.76499 1.75 6.76475C1.75 6.76451 1.75 6.76428 1.75 6.76404C1.75 6.7638 1.75 6.76357 1.75 6.76333C1.75 6.76309 1.75 6.76286 1.75 6.76262C1.75 6.76238 1.75 6.76215 1.75 6.76191C1.75 6.76167 1.75 6.76144 1.75 6.7612C1.75 6.76096 1.75 6.76073 1.75 6.76049C1.75 6.76025 1.75 6.76002 1.75 6.75978C1.75 6.75954 1.75 6.75931 1.75 6.75907C1.75 6.75884 1.75 6.7586 1.75 6.75836C1.75 6.75813 1.75 6.75789 1.75 6.75765C1.75 6.75742 1.75 6.75718 1.75 6.75694C1.75 6.75671 1.75 6.75647 1.75 6.75623C1.75 6.756 1.75 6.75576 1.75 6.75553C1.75 6.75529 1.75 6.75505 1.75 6.75482C1.75 6.75458 1.75 6.75434 1.75 6.75411C1.75 6.75387 1.75 6.75363 1.75 6.7534C1.75 6.75316 1.75 6.75293 1.75 6.75269C1.75 6.75245 1.75 6.75222 1.75 6.75198C1.75 6.75174 1.75 6.75151 1.75 6.75127C1.75 6.75104 1.75 6.7508 1.75 6.75056C1.75 6.75033 1.75 6.75009 1.75 6.74986C1.75 6.74962 1.75 6.74938 1.75 6.74915C1.75 6.74891 1.75 6.74868 1.75 6.74844C1.75 6.7482 1.75 6.74797 1.75 6.74773C1.75 6.7475 1.75 6.74726 1.75 6.74702C1.75 6.74679 1.75 6.74655 1.75 6.74632C1.75 6.74608 1.75 6.74585 1.75 6.74561C1.75 6.74537 1.75 6.74514 1.75 6.7449C1.75 6.74467 1.75 6.74443 1.75 6.7442C1.75 6.74396 1.75 6.74372 1.75 6.74349C1.75 6.74325 1.75 6.74302 1.75 6.74278C1.75 6.74255 1.75 6.74231 1.75 6.74208C1.75 6.74184 1.75 6.74161 1.75 6.74137C1.75 6.74114 1.75 6.7409 1.75 6.74067C1.75 6.74043 1.75 6.7402 1.75 6.73996C1.75 6.73973 1.75 6.73949 1.75 6.73925C1.75 6.73902 1.75 6.73879 1.75 6.73855C1.75 6.73832 1.75 6.73808 1.75 6.73785C1.75 6.73761 1.75 6.73738 1.75 6.73714C1.75 6.73691 1.75 6.73667 1.75 6.73644C1.75 6.7362 1.75 6.73597 1.75 6.73573C1.75 6.7355 1.75 6.73526 1.75 6.73503C1.75 6.7348 1.75 6.73456 1.75 6.73433C1.75 6.73409 1.75 6.73386 1.75 6.73362C1.75 6.73339 1.75 6.73316 1.75 6.73292C1.75 6.73269 1.75 6.73245 1.75 6.73222C1.75 6.73199 1.75 6.73175 1.75 6.73152C1.75 6.73128 1.75 6.73105 1.75 6.73082C1.75 6.73058 1.75 6.73035 1.75 6.73012C1.75 6.72988 1.75 6.72965 1.75 6.72942C1.75 6.72918 1.75 6.72895 1.75 6.72871C1.75 6.72848 1.75 6.72825 1.75 6.72802C1.75 6.72778 1.75 6.72755 1.75 6.72732C1.75 6.72708 1.75 6.72685 1.75 6.72662C1.75 6.72638 1.75 6.72615 1.75 6.72592C1.75 6.72568 1.75 6.72545 1.75 6.72522C1.75 6.72499 1.75 6.72475 1.75 6.72452C1.75 6.72429 1.75 6.72406 1.75 6.72382C1.75 6.72359 1.75 6.72336 1.75 6.72313C1.75 6.72289 1.75 6.72266 1.75 6.72243C1.75 6.7222 1.75 6.72197 1.75 6.72173C1.75 6.7215 1.75 6.72127 1.75 6.72104C1.75 6.72081 1.75 6.72057 1.75 6.72034C1.75 6.72011 1.75 6.71988 1.75 6.71965C1.75 6.71942 1.75 6.71918 1.75 6.71895C1.75 6.71872 1.75 6.71849 1.75 6.71826C1.75 6.71803 1.75 6.7178 1.75 6.71757C1.75 6.71734 1.75 6.7171 1.75 6.71687C1.75 6.71664 1.75 6.71641 1.75 6.71618C1.75 6.71595 1.75 6.71572 1.75 6.71549C1.75 6.71526 1.75 6.71503 1.75 6.7148C1.75 6.71457 1.75 6.71434 1.75 6.71411C1.75 6.71388 1.75 6.71365 1.75 6.71342C1.75 6.71319 1.75 6.71296 1.75 6.71273C1.75 6.7125 1.75 6.71227 1.75 6.71204C1.75 6.71181 1.75 6.71158 1.75 6.71135C1.75 6.71112 1.75 6.71089 1.75 6.71066C1.75 6.71043 1.75 6.7102 1.75 6.70997C1.75 6.70974 1.75 6.70951 1.75 6.70929C1.75 6.70906 1.75 6.70883 1.75 6.7086C1.75 6.70837 1.75 6.70814 1.75 6.70791C1.75 6.70768 1.75 6.70746 1.75 6.70723C1.75 6.707 1.75 6.70677 1.75 6.70654C1.75 6.70631 1.75 6.70609 1.75 6.70586C1.75 6.70563 1.75 6.7054 1.75 6.70518C1.75 6.70495 1.75 6.70472 1.75 6.70449C1.75 6.70427 1.75 6.70404 1.75 6.70381C1.75 6.70358 1.75 6.70336 1.75 6.70313C1.75 6.7029 1.75 6.70267 1.75 6.70245C1.75 6.70222 1.75 6.70199 1.75 6.70177C1.75 6.70154 1.75 6.70131 1.75 6.70109C1.75 6.70086 1.75 6.70063 1.75 6.70041C1.75 6.70018 1.75 6.69996 1.75 6.69973C1.75 6.6995 1.75 6.69928 1.75 6.69905C1.75 6.69883 1.75 6.6986 1.75 6.69838C1.75 6.69815 1.75 6.69792 1.75 6.6977C1.75 6.69747 1.75 6.69725 1.75 6.69702C1.75 6.6968 1.75 6.69657 1.75 6.69635C1.75 6.69612 1.75 6.6959 1.75 6.69567C1.75 6.69545 1.75 6.69523 1.75 6.695C1.75 6.69478 1.75 6.69455 1.75 6.69433C1.75 6.6941 1.75 6.69388 1.75 6.69366C1.75 6.69343 1.75 6.69321 1.75 6.69299C1.75 6.69276 1.75 6.69254 1.75 6.69232C1.75 6.69209 1.75 6.69187 1.75 6.69165C1.75 6.69142 1.75 6.6912 1.75 6.69098C1.75 6.69075 1.75 6.69053 1.75 6.69031C1.75 6.69009 1.75 6.68986 1.75 6.68964C1.75 6.68942 1.75 6.6892 1.75 6.68897C1.75 6.68875 1.75 6.68853 1.75 6.68831C1.75 6.68809 1.75 6.68787 1.75 6.68764C1.75 6.68742 1.75 6.6872 1.75 6.68698C1.75 6.68676 1.75 6.68654 1.75 6.68632C1.75 6.6861 1.75 6.68587 1.75 6.68565C1.75 6.68543 1.75 6.68521 1.75 6.68499C1.75 6.68477 1.75 6.68455 1.75 6.68433C1.75 6.68411 1.75 6.68389 1.75 6.68367C1.75 6.68345 1.75 6.68323 1.75 6.68301C1.75 6.68279 1.75 6.68257 1.75 6.68235C1.75 6.68213 1.75 6.68191 1.75 6.6817C1.75 6.68148 1.75 6.68126 1.75 6.68104C1.75 6.68082 1.75 6.6806 1.75 6.68038C1.75 6.68017 1.75 6.67995 1.75 6.67973C1.75 6.67951 1.75 6.67929 1.75 6.67907C1.75 6.67886 1.75 6.67864 1.75 6.67842C1.75 6.6782 1.75 6.67799 1.75 6.67777C1.75 6.67755 1.75 6.67734 1.75 6.67712C1.75 6.6769 1.75 6.67668 1.75 6.67647C1.75 6.67625 1.75 6.67604 1.75 6.67582C1.75 6.6756 1.75 6.67539 1.75 6.67517C1.75 6.67495 1.75 6.67474 1.75 6.67452C1.75 6.67431 1.75 6.67409 1.75 6.67388C1.75 6.67366 1.75 6.67345 1.75 6.67323C1.75 6.67302 1.75 6.6728 1.75 6.67259C1.75 6.67237 1.75 6.67216 1.75 6.67194C1.75 6.67173 1.75 6.67151 1.75 6.6713C1.75 6.67109 1.75 6.67087 1.75 6.67066C1.75 6.67044 1.75 6.67023 1.75 6.67002C1.75 6.6698 1.75 6.66959 1.75 6.66938C1.75 6.66917 1.75 6.66895 1.75 6.66874C1.75 6.66853 1.75 6.66831 1.75 6.6681C1.75 6.66789 1.75 6.66768 1.75 6.66747C1.75 6.66725 1.75 6.66704 1.75 6.66683C1.75 6.66662 1.75 6.66641 1.75 6.6662C1.75 6.66598 1.75 6.66577 1.75 6.66556C1.75 6.66535 1.75 6.66514 1.75 6.66493C1.75 6.66472 1.75 6.66451 1.75 6.6643C1.75 6.66409 1.75 6.66388 1.75 6.66367C1.75 6.66346 1.75 6.66325 1.75 6.66304C1.75 6.66283 1.75 6.66262 1.75 6.66241C1.75 6.6622 1.75 6.66199 1.75 6.66178C1.75 6.66158 1.75 6.66137 1.75 6.66116C1.75 6.66095 1.75 6.66074 1.75 6.66053C1.75 6.66033 1.75 6.66012 1.75 6.65991C1.75 6.6597 1.75 6.65949 1.75 6.65929C1.75 6.65908 1.75 6.65887 1.75 6.65867C1.75 6.65846 1.75 6.65825 1.75 6.65805C1.75 6.65784 1.75 6.65763 1.75 6.65743C1.75 6.65722 1.75 6.65701 1.75 6.65681C1.75 6.6566 1.75 6.6564 1.75 6.65619C1.75 6.65599 1.75 6.65578 1.75 6.65558C1.75 6.65537 1.75 6.65517 1.75 6.65496C1.75 6.65476 1.75 6.65455 1.75 6.65435C1.75 6.65414 1.75 6.65394 1.75 6.65374C1.75 6.65353 1.75 6.65333 1.75 6.65312C1.75 6.65292 1.75 6.65272 1.75 6.65251C1.75 6.65231 1.75 6.65211 1.75 6.65191C1.75 6.6517 1.75 6.6515 1.75 6.6513C1.75 6.6511 1.75 6.65089 1.75 6.65069C1.75 6.65049 1.75 6.65029 1.75 6.65009C1.75 6.64989 1.75 6.64968 1.75 6.64948C1.75 6.64928 1.75 6.64908 1.75 6.64888C1.75 6.64868 1.75 6.64848 1.75 6.64828C1.75 6.64808 1.75 6.64788 1.75 6.64768C1.75 6.64748 1.75 6.64728 1.75 6.64708C1.75 6.64688 1.75 6.64668 1.75 6.64648C1.75 6.64629 1.75 6.64609 1.75 6.64589C1.75 6.64569 1.75 6.64549 1.75 6.64529C1.75 6.64509 1.75 6.6449 1.75 6.6447C1.75 6.6445 1.75 6.6443 1.75 6.64411C1.75 6.64391 1.75 6.64371 1.75 6.64352C1.75 6.64332 1.75 6.64312 1.75 6.64293C1.75 6.64273 1.75 6.64253 1.75 6.64234C1.75 6.64214 1.75 6.64195 1.75 6.64175C1.75 6.64156 1.75 6.64136 1.75 6.64117C1.75 6.64097 1.75 6.64078 1.75 6.64058C1.75 6.64039 1.75 6.64019 1.75 6.64C1.75 6.6398 1.75 6.63961 1.75 6.63942C1.75 6.63922 1.75 6.63903 1.75 6.63884C1.75 6.63864 1.75 6.63845 1.75 6.63826C1.75 6.63807 1.75 6.63787 1.75 6.63768C1.75 6.63749 1.75 6.6373 1.75 6.6371C1.75 6.63691 1.75 6.63672 1.75 6.63653C1.75 6.63634 1.75 6.63615 1.75 6.63596C1.75 6.63577 1.75 6.63557 1.75 6.63538C1.75 6.63519 1.75 6.635 1.75 6.63481C1.75 6.63462 1.75 6.63443 1.75 6.63424C1.75 6.63406 1.75 6.63387 1.75 6.63368C1.75 6.63349 1.75 6.6333 1.75 6.63311C1.75 6.63292 1.75 6.63273 1.75 6.63255C1.75 6.63236 1.75 6.63217 1.75 6.63198C1.75 6.6318 1.75 6.63161 1.75 6.63142C1.75 6.63123 1.75 6.63105 1.75 6.63086C1.75 6.63067 1.75 6.63049 1.75 6.6303C1.75 6.63012 1.75 6.62993 1.75 6.62974C1.75 6.62956 1.75 6.62937 1.75 6.62919C1.75 6.629 1.75 6.62882 1.75 6.62863C1.75 6.62845 1.75 6.62827 1.75 6.62808C1.75 6.6279 1.75 6.62771 1.75 6.62753C1.75 6.62735 1.75 6.62716 1.75 6.62698C1.75 6.6268 1.75 6.62661 1.75 6.62643C1.75 6.62625 1.75 6.62607 1.75 6.62589C1.75 6.6257 1.75 6.62552 1.75 6.62534C1.75 6.62516 1.75 6.62498 1.75 6.6248C1.75 6.62461 1.75 6.62443 1.75 6.62425C1.75 6.62407 1.75 6.62389 1.75 6.62371C1.75 6.62353 1.75 6.62335 1.75 6.62317C1.75 6.62299 1.75 6.62282 1.75 6.62264C1.75 6.62246 1.75 6.62228 1.75 6.6221C1.75 6.62192 1.75 6.62174 1.75 6.62157C1.75 6.62139 1.75 6.62121 1.75 6.62103C1.75 6.62086 1.75 6.62068 1.75 6.6205C1.75 6.62033 1.75 6.62015 1.75 6.61997C1.75 6.6198 1.75 6.61962 1.75 6.61944C1.75 6.61927 1.75 6.61909 1.75 6.61892C1.75 6.61874 1.75 6.61857 1.75 6.61839C1.75 6.61822 1.75 6.61804 1.75 6.61787C1.75 6.6177 1.75 6.61752 1.75 6.61735C1.75 6.61718 1.75 6.617 1.75 6.61683C1.75 6.61666 1.75 6.61648 1.75 6.61631C1.75 6.61614 1.75 6.61597 1.75 6.6158C1.75 6.61562 1.75 6.61545 1.75 6.61528C1.75 6.61511 1.75 6.61494 1.75 6.61477C1.75 6.6146 1.75 6.61443 1.75 6.61426C1.75 6.61409 1.75 6.61392 1.75 6.61375C1.75 6.61358 1.75 6.61341 1.75 6.61324C1.75 6.61307 1.75 6.6129 1.75 6.61273C1.75 6.61256 1.75 6.6124 1.75 6.61223C1.75 6.61206 1.75 6.61189 1.75 6.61173C1.75 6.61156 1.75 6.61139 1.75 6.61122C1.75 6.61106 1.75 6.61089 1.75 6.61072C1.75 6.61056 1.75 6.61039 1.75 6.61023C1.75 6.61006 1.75 6.6099 1.75 6.60973C1.75 6.60957 1.75 6.6094 1.75 6.60924C1.75 6.60907 1.75 6.60891 1.75 6.60875C1.75 6.60858 1.75 6.60842 1.75 6.60825C1.75 6.60809 1.75 6.60793 1.75 6.60777C1.75 6.6076 1.75 6.60744 1.75 6.60728C1.75 6.60712 1.75 6.60696 1.75 6.60679C1.75 6.60663 1.75 6.60647 1.75 6.60631C1.75 6.60615 1.75 6.60599 1.75 6.60583C1.75 6.60567 1.75 6.60551 1.75 6.60535C1.75 6.60519 1.75 6.60503 1.75 6.60487C1.75 6.60471 1.75 6.60455 1.75 6.6044C1.75 6.60424 1.75 6.60408 1.75 6.60392H0.25C0.25 6.60408 0.25 6.60424 0.25 6.6044C0.25 6.60455 0.25 6.60471 0.25 6.60487C0.25 6.60503 0.25 6.60519 0.25 6.60535C0.25 6.60551 0.25 6.60567 0.25 6.60583C0.25 6.60599 0.25 6.60615 0.25 6.60631C0.25 6.60647 0.25 6.60663 0.25 6.60679C0.25 6.60696 0.25 6.60712 0.25 6.60728C0.25 6.60744 0.25 6.6076 0.25 6.60777C0.25 6.60793 0.25 6.60809 0.25 6.60825C0.25 6.60842 0.25 6.60858 0.25 6.60875C0.25 6.60891 0.25 6.60907 0.25 6.60924C0.25 6.6094 0.25 6.60957 0.25 6.60973C0.25 6.6099 0.25 6.61006 0.25 6.61023C0.25 6.61039 0.25 6.61056 0.25 6.61072C0.25 6.61089 0.25 6.61106 0.25 6.61122C0.25 6.61139 0.25 6.61156 0.25 6.61173C0.25 6.61189 0.25 6.61206 0.25 6.61223C0.25 6.6124 0.25 6.61256 0.25 6.61273C0.25 6.6129 0.25 6.61307 0.25 6.61324C0.25 6.61341 0.25 6.61358 0.25 6.61375C0.25 6.61392 0.25 6.61409 0.25 6.61426C0.25 6.61443 0.25 6.6146 0.25 6.61477C0.25 6.61494 0.25 6.61511 0.25 6.61528C0.25 6.61545 0.25 6.61562 0.25 6.6158C0.25 6.61597 0.25 6.61614 0.25 6.61631C0.25 6.61648 0.25 6.61666 0.25 6.61683C0.25 6.617 0.25 6.61718 0.25 6.61735C0.25 6.61752 0.25 6.6177 0.25 6.61787C0.25 6.61804 0.25 6.61822 0.25 6.61839C0.25 6.61857 0.25 6.61874 0.25 6.61892C0.25 6.61909 0.25 6.61927 0.25 6.61944C0.25 6.61962 0.25 6.6198 0.25 6.61997C0.25 6.62015 0.25 6.62033 0.25 6.6205C0.25 6.62068 0.25 6.62086 0.25 6.62103C0.25 6.62121 0.25 6.62139 0.25 6.62157C0.25 6.62174 0.25 6.62192 0.25 6.6221C0.25 6.62228 0.25 6.62246 0.25 6.62264C0.25 6.62282 0.25 6.62299 0.25 6.62317C0.25 6.62335 0.25 6.62353 0.25 6.62371C0.25 6.62389 0.25 6.62407 0.25 6.62425C0.25 6.62443 0.25 6.62461 0.25 6.6248C0.25 6.62498 0.25 6.62516 0.25 6.62534C0.25 6.62552 0.25 6.6257 0.25 6.62589C0.25 6.62607 0.25 6.62625 0.25 6.62643C0.25 6.62661 0.25 6.6268 0.25 6.62698C0.25 6.62716 0.25 6.62735 0.25 6.62753C0.25 6.62771 0.25 6.6279 0.25 6.62808C0.25 6.62827 0.25 6.62845 0.25 6.62863C0.25 6.62882 0.25 6.629 0.25 6.62919C0.25 6.62937 0.25 6.62956 0.25 6.62974C0.25 6.62993 0.25 6.63012 0.25 6.6303C0.25 6.63049 0.25 6.63067 0.25 6.63086C0.25 6.63105 0.25 6.63123 0.25 6.63142C0.25 6.63161 0.25 6.6318 0.25 6.63198C0.25 6.63217 0.25 6.63236 0.25 6.63255C0.25 6.63273 0.25 6.63292 0.25 6.63311C0.25 6.6333 0.25 6.63349 0.25 6.63368C0.25 6.63387 0.25 6.63406 0.25 6.63424C0.25 6.63443 0.25 6.63462 0.25 6.63481C0.25 6.635 0.25 6.63519 0.25 6.63538C0.25 6.63557 0.25 6.63577 0.25 6.63596C0.25 6.63615 0.25 6.63634 0.25 6.63653C0.25 6.63672 0.25 6.63691 0.25 6.6371C0.25 6.6373 0.25 6.63749 0.25 6.63768C0.25 6.63787 0.25 6.63807 0.25 6.63826C0.25 6.63845 0.25 6.63864 0.25 6.63884C0.25 6.63903 0.25 6.63922 0.25 6.63942C0.25 6.63961 0.25 6.6398 0.25 6.64C0.25 6.64019 0.25 6.64039 0.25 6.64058C0.25 6.64078 0.25 6.64097 0.25 6.64117C0.25 6.64136 0.25 6.64156 0.25 6.64175C0.25 6.64195 0.25 6.64214 0.25 6.64234C0.25 6.64253 0.25 6.64273 0.25 6.64293C0.25 6.64312 0.25 6.64332 0.25 6.64352C0.25 6.64371 0.25 6.64391 0.25 6.64411C0.25 6.6443 0.25 6.6445 0.25 6.6447C0.25 6.6449 0.25 6.64509 0.25 6.64529C0.25 6.64549 0.25 6.64569 0.25 6.64589C0.25 6.64609 0.25 6.64629 0.25 6.64648C0.25 6.64668 0.25 6.64688 0.25 6.64708C0.25 6.64728 0.25 6.64748 0.25 6.64768C0.25 6.64788 0.25 6.64808 0.25 6.64828C0.25 6.64848 0.25 6.64868 0.25 6.64888C0.25 6.64908 0.25 6.64928 0.25 6.64948C0.25 6.64968 0.25 6.64989 0.25 6.65009C0.25 6.65029 0.25 6.65049 0.25 6.65069C0.25 6.65089 0.25 6.6511 0.25 6.6513C0.25 6.6515 0.25 6.6517 0.25 6.65191C0.25 6.65211 0.25 6.65231 0.25 6.65251C0.25 6.65272 0.25 6.65292 0.25 6.65312C0.25 6.65333 0.25 6.65353 0.25 6.65374C0.25 6.65394 0.25 6.65414 0.25 6.65435C0.25 6.65455 0.25 6.65476 0.25 6.65496C0.25 6.65517 0.25 6.65537 0.25 6.65558C0.25 6.65578 0.25 6.65599 0.25 6.65619C0.25 6.6564 0.25 6.6566 0.25 6.65681C0.25 6.65701 0.25 6.65722 0.25 6.65743C0.25 6.65763 0.25 6.65784 0.25 6.65805C0.25 6.65825 0.25 6.65846 0.25 6.65867C0.25 6.65887 0.25 6.65908 0.25 6.65929C0.25 6.65949 0.25 6.6597 0.25 6.65991C0.25 6.66012 0.25 6.66033 0.25 6.66053C0.25 6.66074 0.25 6.66095 0.25 6.66116C0.25 6.66137 0.25 6.66158 0.25 6.66178C0.25 6.66199 0.25 6.6622 0.25 6.66241C0.25 6.66262 0.25 6.66283 0.25 6.66304C0.25 6.66325 0.25 6.66346 0.25 6.66367C0.25 6.66388 0.25 6.66409 0.25 6.6643C0.25 6.66451 0.25 6.66472 0.25 6.66493C0.25 6.66514 0.25 6.66535 0.25 6.66556C0.25 6.66577 0.25 6.66598 0.25 6.6662C0.25 6.66641 0.25 6.66662 0.25 6.66683C0.25 6.66704 0.25 6.66725 0.25 6.66747C0.25 6.66768 0.25 6.66789 0.25 6.6681C0.25 6.66831 0.25 6.66853 0.25 6.66874C0.25 6.66895 0.25 6.66917 0.25 6.66938C0.25 6.66959 0.25 6.6698 0.25 6.67002C0.25 6.67023 0.25 6.67044 0.25 6.67066C0.25 6.67087 0.25 6.67109 0.25 6.6713C0.25 6.67151 0.25 6.67173 0.25 6.67194C0.25 6.67216 0.25 6.67237 0.25 6.67259C0.25 6.6728 0.25 6.67302 0.25 6.67323C0.25 6.67345 0.25 6.67366 0.25 6.67388C0.25 6.67409 0.25 6.67431 0.25 6.67452C0.25 6.67474 0.25 6.67495 0.25 6.67517C0.25 6.67539 0.25 6.6756 0.25 6.67582C0.25 6.67604 0.25 6.67625 0.25 6.67647C0.25 6.67668 0.25 6.6769 0.25 6.67712C0.25 6.67734 0.25 6.67755 0.25 6.67777C0.25 6.67799 0.25 6.6782 0.25 6.67842C0.25 6.67864 0.25 6.67886 0.25 6.67907C0.25 6.67929 0.25 6.67951 0.25 6.67973C0.25 6.67995 0.25 6.68017 0.25 6.68038C0.25 6.6806 0.25 6.68082 0.25 6.68104C0.25 6.68126 0.25 6.68148 0.25 6.6817C0.25 6.68191 0.25 6.68213 0.25 6.68235C0.25 6.68257 0.25 6.68279 0.25 6.68301C0.25 6.68323 0.25 6.68345 0.25 6.68367C0.25 6.68389 0.25 6.68411 0.25 6.68433C0.25 6.68455 0.25 6.68477 0.25 6.68499C0.25 6.68521 0.25 6.68543 0.25 6.68565C0.25 6.68587 0.25 6.6861 0.25 6.68632C0.25 6.68654 0.25 6.68676 0.25 6.68698C0.25 6.6872 0.25 6.68742 0.25 6.68764C0.25 6.68787 0.25 6.68809 0.25 6.68831C0.25 6.68853 0.25 6.68875 0.25 6.68897C0.25 6.6892 0.25 6.68942 0.25 6.68964C0.25 6.68986 0.25 6.69009 0.25 6.69031C0.25 6.69053 0.25 6.69075 0.25 6.69098C0.25 6.6912 0.25 6.69142 0.25 6.69165C0.25 6.69187 0.25 6.69209 0.25 6.69232C0.25 6.69254 0.25 6.69276 0.25 6.69299C0.25 6.69321 0.25 6.69343 0.25 6.69366C0.25 6.69388 0.25 6.6941 0.25 6.69433C0.25 6.69455 0.25 6.69478 0.25 6.695C0.25 6.69523 0.25 6.69545 0.25 6.69567C0.25 6.6959 0.25 6.69612 0.25 6.69635C0.25 6.69657 0.25 6.6968 0.25 6.69702C0.25 6.69725 0.25 6.69747 0.25 6.6977C0.25 6.69792 0.25 6.69815 0.25 6.69838C0.25 6.6986 0.25 6.69883 0.25 6.69905C0.25 6.69928 0.25 6.6995 0.25 6.69973C0.25 6.69996 0.25 6.70018 0.25 6.70041C0.25 6.70063 0.25 6.70086 0.25 6.70109C0.25 6.70131 0.25 6.70154 0.25 6.70177C0.25 6.70199 0.25 6.70222 0.25 6.70245C0.25 6.70267 0.25 6.7029 0.25 6.70313C0.25 6.70336 0.25 6.70358 0.25 6.70381C0.25 6.70404 0.25 6.70427 0.25 6.70449C0.25 6.70472 0.25 6.70495 0.25 6.70518C0.25 6.7054 0.25 6.70563 0.25 6.70586C0.25 6.70609 0.25 6.70631 0.25 6.70654C0.25 6.70677 0.25 6.707 0.25 6.70723C0.25 6.70746 0.25 6.70768 0.25 6.70791C0.25 6.70814 0.25 6.70837 0.25 6.7086C0.25 6.70883 0.25 6.70906 0.25 6.70929C0.25 6.70951 0.25 6.70974 0.25 6.70997C0.25 6.7102 0.25 6.71043 0.25 6.71066C0.25 6.71089 0.25 6.71112 0.25 6.71135C0.25 6.71158 0.25 6.71181 0.25 6.71204C0.25 6.71227 0.25 6.7125 0.25 6.71273C0.25 6.71296 0.25 6.71319 0.25 6.71342C0.25 6.71365 0.25 6.71388 0.25 6.71411C0.25 6.71434 0.25 6.71457 0.25 6.7148C0.25 6.71503 0.25 6.71526 0.25 6.71549C0.25 6.71572 0.25 6.71595 0.25 6.71618C0.25 6.71641 0.25 6.71664 0.25 6.71687C0.25 6.7171 0.25 6.71734 0.25 6.71757C0.25 6.7178 0.25 6.71803 0.25 6.71826C0.25 6.71849 0.25 6.71872 0.25 6.71895C0.25 6.71918 0.25 6.71942 0.25 6.71965C0.25 6.71988 0.25 6.72011 0.25 6.72034C0.25 6.72057 0.25 6.72081 0.25 6.72104C0.25 6.72127 0.25 6.7215 0.25 6.72173C0.25 6.72197 0.25 6.7222 0.25 6.72243C0.25 6.72266 0.25 6.72289 0.25 6.72313C0.25 6.72336 0.25 6.72359 0.25 6.72382C0.25 6.72406 0.25 6.72429 0.25 6.72452C0.25 6.72475 0.25 6.72499 0.25 6.72522C0.25 6.72545 0.25 6.72568 0.25 6.72592C0.25 6.72615 0.25 6.72638 0.25 6.72662C0.25 6.72685 0.25 6.72708 0.25 6.72732C0.25 6.72755 0.25 6.72778 0.25 6.72802C0.25 6.72825 0.25 6.72848 0.25 6.72871C0.25 6.72895 0.25 6.72918 0.25 6.72942C0.25 6.72965 0.25 6.72988 0.25 6.73012C0.25 6.73035 0.25 6.73058 0.25 6.73082C0.25 6.73105 0.25 6.73128 0.25 6.73152C0.25 6.73175 0.25 6.73199 0.25 6.73222C0.25 6.73245 0.25 6.73269 0.25 6.73292C0.25 6.73316 0.25 6.73339 0.25 6.73362C0.25 6.73386 0.25 6.73409 0.25 6.73433C0.25 6.73456 0.25 6.7348 0.25 6.73503C0.25 6.73526 0.25 6.7355 0.25 6.73573C0.25 6.73597 0.25 6.7362 0.25 6.73644C0.25 6.73667 0.25 6.73691 0.25 6.73714C0.25 6.73738 0.25 6.73761 0.25 6.73785C0.25 6.73808 0.25 6.73832 0.25 6.73855C0.25 6.73879 0.25 6.73902 0.25 6.73925C0.25 6.73949 0.25 6.73973 0.25 6.73996C0.25 6.7402 0.25 6.74043 0.25 6.74067C0.25 6.7409 0.25 6.74114 0.25 6.74137C0.25 6.74161 0.25 6.74184 0.25 6.74208C0.25 6.74231 0.25 6.74255 0.25 6.74278C0.25 6.74302 0.25 6.74325 0.25 6.74349C0.25 6.74372 0.25 6.74396 0.25 6.7442C0.25 6.74443 0.25 6.74467 0.25 6.7449C0.25 6.74514 0.25 6.74537 0.25 6.74561C0.25 6.74585 0.25 6.74608 0.25 6.74632C0.25 6.74655 0.25 6.74679 0.25 6.74702C0.25 6.74726 0.25 6.7475 0.25 6.74773C0.25 6.74797 0.25 6.7482 0.25 6.74844C0.25 6.74868 0.25 6.74891 0.25 6.74915C0.25 6.74938 0.25 6.74962 0.25 6.74986C0.25 6.75009 0.25 6.75033 0.25 6.75056C0.25 6.7508 0.25 6.75104 0.25 6.75127C0.25 6.75151 0.25 6.75174 0.25 6.75198C0.25 6.75222 0.25 6.75245 0.25 6.75269C0.25 6.75293 0.25 6.75316 0.25 6.7534C0.25 6.75363 0.25 6.75387 0.25 6.75411C0.25 6.75434 0.25 6.75458 0.25 6.75482C0.25 6.75505 0.25 6.75529 0.25 6.75553C0.25 6.75576 0.25 6.756 0.25 6.75623C0.25 6.75647 0.25 6.75671 0.25 6.75694C0.25 6.75718 0.25 6.75742 0.25 6.75765C0.25 6.75789 0.25 6.75813 0.25 6.75836C0.25 6.7586 0.25 6.75884 0.25 6.75907C0.25 6.75931 0.25 6.75954 0.25 6.75978C0.25 6.76002 0.25 6.76025 0.25 6.76049C0.25 6.76073 0.25 6.76096 0.25 6.7612C0.25 6.76144 0.25 6.76167 0.25 6.76191C0.25 6.76215 0.25 6.76238 0.25 6.76262C0.25 6.76286 0.25 6.76309 0.25 6.76333C0.25 6.76357 0.25 6.7638 0.25 6.76404C0.25 6.76428 0.25 6.76451 0.25 6.76475C0.25 6.76499 0.25 6.76522 0.25 6.76546C0.25 6.7657 0.25 6.76593 0.25 6.76617C0.25 6.76641 0.25 6.76664 0.25 6.76688C0.25 6.76712 0.25 6.76735 0.25 6.76759C0.25 6.76783 0.25 6.76806 0.25 6.7683C0.25 6.76854 0.25 6.76877 0.25 6.76901C0.25 6.76925 0.25 6.76948 0.25 6.76972C0.25 6.76996 0.25 6.77019 0.25 6.77043C0.25 6.77067 0.25 6.7709 0.25 6.77114C0.25 6.77138 0.25 6.77161 0.25 6.77185C0.25 6.77208 0.25 6.77232 0.25 6.77256C0.25 6.77279 0.25 6.77303 0.25 6.77327C0.25 6.7735 0.25 6.77374 0.25 6.77398C0.25 6.77421 0.25 6.77445 0.25 6.77469C0.25 6.77492 0.25 6.77516 0.25 6.77539C0.25 6.77563 0.25 6.77587 0.25 6.7761C0.25 6.77634 0.25 6.77658 0.25 6.77681C0.25 6.77705 0.25 6.77729 0.25 6.77752C0.25 6.77776 0.25 6.77799 0.25 6.77823C0.25 6.77847 0.25 6.7787 0.25 6.77894C0.25 6.77918 0.25 6.77941 0.25 6.77965C0.25 6.77988 0.25 6.78012 0.25 6.78036C0.25 6.78059 0.25 6.78083 0.25 6.78106C0.25 6.7813 0.25 6.78154 0.25 6.78177C0.25 6.78201 0.25 6.78224 0.25 6.78248C0.25 6.78272 0.25 6.78295 0.25 6.78319C0.25 6.78342 0.25 6.78366 0.25 6.7839C0.25 6.78413 0.25 6.78437 0.25 6.7846C0.25 6.78484 0.25 6.78507 0.25 6.78531C0.25 6.78555 0.25 6.78578 0.25 6.78602C0.25 6.78625 0.25 6.78649 0.25 6.78672C0.25 6.78696 0.25 6.7872 0.25 6.78743C0.25 6.78767 0.25 6.7879 0.25 6.78814C0.25 6.78837 0.25 6.78861 0.25 6.78884C0.25 6.78908 0.25 6.78931 0.25 6.78955C0.25 6.78978 0.25 6.79002 0.25 6.79025C0.25 6.79049 0.25 6.79072 0.25 6.79096C0.25 6.79119 0.25 6.79143 0.25 6.79167C0.25 6.7919 0.25 6.79213 0.25 6.79237C0.25 6.7926 0.25 6.79284 0.25 6.79307C0.25 6.79331 0.25 6.79354 0.25 6.79378C0.25 6.79401 0.25 6.79425 0.25 6.79448C0.25 6.79472 0.25 6.79495 0.25 6.79519C0.25 6.79542 0.25 6.79566 0.25 6.79589C0.25 6.79612 0.25 6.79636 0.25 6.79659C0.25 6.79683 0.25 6.79706 0.25 6.7973C0.25 6.79753 0.25 6.79776 0.25 6.798C0.25 6.79823 0.25 6.79847 0.25 6.7987C0.25 6.79893 0.25 6.79917 0.25 6.7994C0.25 6.79964 0.25 6.79987 0.25 6.8001C0.25 6.80034 0.25 6.80057 0.25 6.8008C0.25 6.80104 0.25 6.80127 0.25 6.8015C0.25 6.80174 0.25 6.80197 0.25 6.80221C0.25 6.80244 0.25 6.80267 0.25 6.8029C0.25 6.80314 0.25 6.80337 0.25 6.8036C0.25 6.80384 0.25 6.80407 0.25 6.8043C0.25 6.80454 0.25 6.80477 0.25 6.805C0.25 6.80524 0.25 6.80547 0.25 6.8057C0.25 6.80593 0.25 6.80617 0.25 6.8064C0.25 6.80663 0.25 6.80686 0.25 6.8071C0.25 6.80733 0.25 6.80756 0.25 6.80779C0.25 6.80803 0.25 6.80826 0.25 6.80849C0.25 6.80872 0.25 6.80895 0.25 6.80919C0.25 6.80942 0.25 6.80965 0.25 6.80988C0.25 6.81011 0.25 6.81035 0.25 6.81058C0.25 6.81081 0.25 6.81104 0.25 6.81127C0.25 6.8115 0.25 6.81174 0.25 6.81197C0.25 6.8122 0.25 6.81243 0.25 6.81266C0.25 6.81289 0.25 6.81312 0.25 6.81335C0.25 6.81358 0.25 6.81382 0.25 6.81405C0.25 6.81428 0.25 6.81451 0.25 6.81474C0.25 6.81497 0.25 6.8152 0.25 6.81543C0.25 6.81566 0.25 6.81589 0.25 6.81612C0.25 6.81635 0.25 6.81658 0.25 6.81681C0.25 6.81704 0.25 6.81727 0.25 6.8175C0.25 6.81773 0.25 6.81796 0.25 6.81819C0.25 6.81842 0.25 6.81865 0.25 6.81888C0.25 6.81911 0.25 6.81934 0.25 6.81957C0.25 6.8198 0.25 6.82003 0.25 6.82026C0.25 6.82049 0.25 6.82072 0.25 6.82095C0.25 6.82118 0.25 6.82141 0.25 6.82163C0.25 6.82186 0.25 6.82209 0.25 6.82232C0.25 6.82255 0.25 6.82278 0.25 6.82301C0.25 6.82324 0.25 6.82346 0.25 6.82369C0.25 6.82392 0.25 6.82415 0.25 6.82438C0.25 6.82461 0.25 6.82483 0.25 6.82506C0.25 6.82529 0.25 6.82552 0.25 6.82574C0.25 6.82597 0.25 6.8262 0.25 6.82643C0.25 6.82665 0.25 6.82688 0.25 6.82711C0.25 6.82734 0.25 6.82756 0.25 6.82779C0.25 6.82802 0.25 6.82825 0.25 6.82847C0.25 6.8287 0.25 6.82893 0.25 6.82915C0.25 6.82938 0.25 6.82961 0.25 6.82983C0.25 6.83006 0.25 6.83029 0.25 6.83051C0.25 6.83074 0.25 6.83096 0.25 6.83119C0.25 6.83142 0.25 6.83164 0.25 6.83187C0.25 6.83209 0.25 6.83232 0.25 6.83254C0.25 6.83277 0.25 6.833 0.25 6.83322C0.25 6.83345 0.25 6.83367 0.25 6.8339C0.25 6.83412 0.25 6.83435 0.25 6.83457C0.25 6.8348 0.25 6.83502 0.25 6.83525C0.25 6.83547 0.25 6.83569 0.25 6.83592C0.25 6.83614 0.25 6.83637 0.25 6.83659C0.25 6.83682 0.25 6.83704 0.25 6.83726C0.25 6.83749 0.25 6.83771 0.25 6.83793C0.25 6.83816 0.25 6.83838 0.25 6.8386C0.25 6.83883 0.25 6.83905 0.25 6.83927C0.25 6.8395 0.25 6.83972 0.25 6.83994C0.25 6.84017 0.25 6.84039 0.25 6.84061C0.25 6.84083 0.25 6.84106 0.25 6.84128C0.25 6.8415 0.25 6.84172 0.25 6.84195C0.25 6.84217 0.25 6.84239 0.25 6.84261C0.25 6.84283 0.25 6.84305 0.25 6.84328C0.25 6.8435 0.25 6.84372 0.25 6.84394C0.25 6.84416 0.25 6.84438 0.25 6.8446C0.25 6.84482 0.25 6.84505 0.25 6.84527C0.25 6.84549 0.25 6.84571 0.25 6.84593C0.25 6.84615 0.25 6.84637 0.25 6.84659C0.25 6.84681 0.25 6.84703 0.25 6.84725C0.25 6.84747 0.25 6.84769 0.25 6.84791C0.25 6.84813 0.25 6.84835 0.25 6.84857C0.25 6.84879 0.25 6.84901 0.25 6.84922C0.25 6.84944 0.25 6.84966 0.25 6.84988C0.25 6.8501 0.25 6.85032 0.25 6.85054C0.25 6.85075 0.25 6.85097 0.25 6.85119C0.25 6.85141 0.25 6.85163 0.25 6.85185C0.25 6.85206 0.25 6.85228 0.25 6.8525C0.25 6.85272 0.25 6.85293 0.25 6.85315C0.25 6.85337 0.25 6.85358 0.25 6.8538C0.25 6.85402 0.25 6.85424 0.25 6.85445C0.25 6.85467 0.25 6.85488 0.25 6.8551C0.25 6.85532 0.25 6.85553 0.25 6.85575C0.25 6.85597 0.25 6.85618 0.25 6.8564C0.25 6.85661 0.25 6.85683 0.25 6.85704C0.25 6.85726 0.25 6.85747 0.25 6.85769C0.25 6.8579 0.25 6.85812 0.25 6.85833C0.25 6.85855 0.25 6.85876 0.25 6.85898C0.25 6.85919 0.25 6.85941 0.25 6.85962C0.25 6.85983 0.25 6.86005 0.25 6.86026C0.25 6.86048 0.25 6.86069 0.25 6.8609C0.25 6.86112 0.25 6.86133 0.25 6.86154C0.25 6.86175 0.25 6.86197 0.25 6.86218C0.25 6.86239 0.25 6.86261 0.25 6.86282C0.25 6.86303 0.25 6.86324 0.25 6.86345C0.25 6.86367 0.25 6.86388 0.25 6.86409C0.25 6.8643 0.25 6.86451 0.25 6.86472C0.25 6.86494 0.25 6.86515 0.25 6.86536C0.25 6.86557 0.25 6.86578 0.25 6.86599C0.25 6.8662 0.25 6.86641 0.25 6.86662C0.25 6.86683 0.25 6.86704 0.25 6.86725C0.25 6.86746 0.25 6.86767 0.25 6.86788C0.25 6.86809 0.25 6.8683 0.25 6.86851C0.25 6.86872 0.25 6.86893 0.25 6.86914C0.25 6.86934 0.25 6.86955 0.25 6.86976C0.25 6.86997 0.25 6.87018 0.25 6.87039C0.25 6.87059 0.25 6.8708 0.25 6.87101C0.25 6.87122 0.25 6.87143 0.25 6.87163C0.25 6.87184 0.25 6.87205 0.25 6.87225C0.25 6.87246 0.25 6.87267 0.25 6.87287C0.25 6.87308 0.25 6.87329 0.25 6.87349C0.25 6.8737 0.25 6.87391 0.25 6.87411C0.25 6.87432 0.25 6.87452 0.25 6.87473C0.25 6.87493 0.25 6.87514 0.25 6.87534C0.25 6.87555 0.25 6.87575 0.25 6.87596C0.25 6.87616 0.25 6.87637 0.25 6.87657C0.25 6.87678 0.25 6.87698 0.25 6.87718C0.25 6.87739 0.25 6.87759 0.25 6.8778C0.25 6.878 0.25 6.8782 0.25 6.87841C0.25 6.87861 0.25 6.87881 0.25 6.87901C0.25 6.87922 0.25 6.87942 0.25 6.87962C0.25 6.87982 0.25 6.88003 0.25 6.88023C0.25 6.88043 0.25 6.88063 0.25 6.88083C0.25 6.88103 0.25 6.88124 0.25 6.88144C0.25 6.88164 0.25 6.88184 0.25 6.88204C0.25 6.88224 0.25 6.88244 0.25 6.88264C0.25 6.88284 0.25 6.88304 0.25 6.88324C0.25 6.88344 0.25 6.88364 0.25 6.88384C0.25 6.88404 0.25 6.88424 0.25 6.88444C0.25 6.88463 0.25 6.88483 0.25 6.88503C0.25 6.88523 0.25 6.88543 0.25 6.88563C0.25 6.88583 0.25 6.88602 0.25 6.88622C0.25 6.88642 0.25 6.88662 0.25 6.88681C0.25 6.88701 0.25 6.88721 0.25 6.8874C0.25 6.8876 0.25 6.8878 0.25 6.88799C0.25 6.88819 0.25 6.88839 0.25 6.88858C0.25 6.88878 0.25 6.88897 0.25 6.88917C0.25 6.88936 0.25 6.88956 0.25 6.88975C0.25 6.88995 0.25 6.89014 0.25 6.89034C0.25 6.89053 0.25 6.89073 0.25 6.89092C0.25 6.89112 0.25 6.89131 0.25 6.8915C0.25 6.8917 0.25 6.89189 0.25 6.89208C0.25 6.89228 0.25 6.89247 0.25 6.89266C0.25 6.89285 0.25 6.89305 0.25 6.89324C0.25 6.89343 0.25 6.89362 0.25 6.89382C0.25 6.89401 0.25 6.8942 0.25 6.89439C0.25 6.89458 0.25 6.89477 0.25 6.89496C0.25 6.89515 0.25 6.89535 0.25 6.89554C0.25 6.89573 0.25 6.89592 0.25 6.89611C0.25 6.8963 0.25 6.89649 0.25 6.89668C0.25 6.89686 0.25 6.89705 0.25 6.89724C0.25 6.89743 0.25 6.89762 0.25 6.89781C0.25 6.898 0.25 6.89819 0.25 6.89837C0.25 6.89856 0.25 6.89875 0.25 6.89894C0.25 6.89912 0.25 6.89931 0.25 6.8995C0.25 6.89969 0.25 6.89987 0.25 6.90006C0.25 6.90025 0.25 6.90043 0.25 6.90062C0.25 6.9008 0.25 6.90099 0.25 6.90118C0.25 6.90136 0.25 6.90155 0.25 6.90173C0.25 6.90192 0.25 6.9021 0.25 6.90229C0.25 6.90247 0.25 6.90265 0.25 6.90284C0.25 6.90302 0.25 6.90321 0.25 6.90339C0.25 6.90357 0.25 6.90376 0.25 6.90394C0.25 6.90412 0.25 6.90431 0.25 6.90449C0.25 6.90467 0.25 6.90485 0.25 6.90504C0.25 6.90522 0.25 6.9054 0.25 6.90558C0.25 6.90576 0.25 6.90594 0.25 6.90612C0.25 6.90631 0.25 6.90649 0.25 6.90667C0.25 6.90685 0.25 6.90703 0.25 6.90721C0.25 6.90739 0.25 6.90757 0.25 6.90775C0.25 6.90793 0.25 6.9081 0.25 6.90828C0.25 6.90846 0.25 6.90864 0.25 6.90882C0.25 6.909 0.25 6.90918 0.25 6.90935C0.25 6.90953 0.25 6.90971 0.25 6.90989C0.25 6.91006 0.25 6.91024 0.25 6.91042C0.25 6.91059 0.25 6.91077 0.25 6.91095C0.25 6.91112 0.25 6.9113 0.25 6.91148C0.25 6.91165 0.25 6.91183 0.25 6.912C0.25 6.91218 0.25 6.91235 0.25 6.91253C0.25 6.9127 0.25 6.91288 0.25 6.91305C0.25 6.91322 0.25 6.9134 0.25 6.91357C0.25 6.91374 0.25 6.91392 0.25 6.91409C0.25 6.91426 0.25 6.91444 0.25 6.91461C0.25 6.91478 0.25 6.91495 0.25 6.91512C0.25 6.9153 0.25 6.91547 0.25 6.91564C0.25 6.91581 0.25 6.91598 0.25 6.91615C0.25 6.91632 0.25 6.91649 0.25 6.91666C0.25 6.91683 0.25 6.917 0.25 6.91717C0.25 6.91734 0.25 6.91751 0.25 6.91768C0.25 6.91785 0.25 6.91802 0.25 6.91819C0.25 6.91836 0.25 6.91852 0.25 6.91869C0.25 6.91886 0.25 6.91903 0.25 6.91919C0.25 6.91936 0.25 6.91953 0.25 6.9197C0.25 6.91986 0.25 6.92003 0.25 6.9202C0.25 6.92036 0.25 6.92053 0.25 6.92069C0.25 6.92086 0.25 6.92102 0.25 6.92119C0.25 6.92135 0.25 6.92152 0.25 6.92168C0.25 6.92185 0.25 6.92201 0.25 6.92217C0.25 6.92234 0.25 6.9225 0.25 6.92267C0.25 6.92283 0.25 6.92299 0.25 6.92315C0.25 6.92332 0.25 6.92348 0.25 6.92364C0.25 6.9238 0.25 6.92396 0.25 6.92413C0.25 6.92429 0.25 6.92445 0.25 6.92461C0.25 6.92477 0.25 6.92493 0.25 6.92509C0.25 6.92525 0.25 6.92541 0.25 6.92557C0.25 6.92573 0.25 6.92589 0.25 6.92605C0.25 6.92621 0.25 6.92637 0.25 6.92652C0.25 6.92668 0.25 6.92684 0.25 6.927H1.75ZM1.75 6.60392C1.75 6.08524 2.01604 5.54261 2.65688 4.98305C3.30148 4.4202 4.26426 3.89887 5.48407 3.45129C7.91808 2.55817 11.2008 2.02155 14.492 1.94216L14.4558 0.442601C11.0503 0.524749 7.59613 1.07852 4.96736 2.04309C3.65577 2.52436 2.5057 3.1237 1.67029 3.85316C0.831118 4.58591 0.25 5.50721 0.25 6.60392H1.75ZM14.4558 1.94216C17.7469 2.02155 21.0297 2.55817 23.4637 3.45129C24.6835 3.89887 25.6463 4.4202 26.2909 4.98305C26.9317 5.54261 27.1977 6.08524 27.1977 6.60392H28.6977C28.6977 5.50721 28.1166 4.58591 27.2774 3.85316C26.442 3.1237 25.292 2.52436 23.9804 2.04309C21.3516 1.07852 17.8974 0.524749 14.492 0.442601L14.4558 1.94216ZM27.1977 6.60392C27.1977 6.60408 27.1977 6.60424 27.1977 6.6044C27.1977 6.60455 27.1977 6.60471 27.1977 6.60487C27.1977 6.60503 27.1977 6.60519 27.1977 6.60535C27.1977 6.60551 27.1977 6.60567 27.1977 6.60583C27.1977 6.60599 27.1977 6.60615 27.1977 6.60631C27.1977 6.60647 27.1977 6.60663 27.1977 6.60679C27.1977 6.60696 27.1977 6.60712 27.1977 6.60728C27.1977 6.60744 27.1977 6.6076 27.1977 6.60777C27.1977 6.60793 27.1977 6.60809 27.1977 6.60825C27.1977 6.60842 27.1977 6.60858 27.1977 6.60875C27.1977 6.60891 27.1977 6.60907 27.1977 6.60924C27.1977 6.6094 27.1977 6.60957 27.1977 6.60973C27.1977 6.6099 27.1977 6.61006 27.1977 6.61023C27.1977 6.61039 27.1977 6.61056 27.1977 6.61072C27.1977 6.61089 27.1977 6.61106 27.1977 6.61122C27.1977 6.61139 27.1977 6.61156 27.1977 6.61173C27.1977 6.61189 27.1977 6.61206 27.1977 6.61223C27.1977 6.6124 27.1977 6.61256 27.1977 6.61273C27.1977 6.6129 27.1977 6.61307 27.1977 6.61324C27.1977 6.61341 27.1977 6.61358 27.1977 6.61375C27.1977 6.61392 27.1977 6.61409 27.1977 6.61426C27.1977 6.61443 27.1977 6.6146 27.1977 6.61477C27.1977 6.61494 27.1977 6.61511 27.1977 6.61528C27.1977 6.61545 27.1977 6.61562 27.1977 6.6158C27.1977 6.61597 27.1977 6.61614 27.1977 6.61631C27.1977 6.61648 27.1977 6.61666 27.1977 6.61683C27.1977 6.617 27.1977 6.61718 27.1977 6.61735C27.1977 6.61752 27.1977 6.6177 27.1977 6.61787C27.1977 6.61804 27.1977 6.61822 27.1977 6.61839C27.1977 6.61857 27.1977 6.61874 27.1977 6.61892C27.1977 6.61909 27.1977 6.61927 27.1977 6.61944C27.1977 6.61962 27.1977 6.6198 27.1977 6.61997C27.1977 6.62015 27.1977 6.62033 27.1977 6.6205C27.1977 6.62068 27.1977 6.62086 27.1977 6.62103C27.1977 6.62121 27.1977 6.62139 27.1977 6.62157C27.1977 6.62174 27.1977 6.62192 27.1977 6.6221C27.1977 6.62228 27.1977 6.62246 27.1977 6.62264C27.1977 6.62282 27.1977 6.62299 27.1977 6.62317C27.1977 6.62335 27.1977 6.62353 27.1977 6.62371C27.1977 6.62389 27.1977 6.62407 27.1977 6.62425C27.1977 6.62443 27.1977 6.62461 27.1977 6.6248C27.1977 6.62498 27.1977 6.62516 27.1977 6.62534C27.1977 6.62552 27.1977 6.6257 27.1977 6.62589C27.1977 6.62607 27.1977 6.62625 27.1977 6.62643C27.1977 6.62661 27.1977 6.6268 27.1977 6.62698C27.1977 6.62716 27.1977 6.62735 27.1977 6.62753C27.1977 6.62771 27.1977 6.6279 27.1977 6.62808C27.1977 6.62827 27.1977 6.62845 27.1977 6.62863C27.1977 6.62882 27.1977 6.629 27.1977 6.62919C27.1977 6.62937 27.1977 6.62956 27.1977 6.62974C27.1977 6.62993 27.1977 6.63012 27.1977 6.6303C27.1977 6.63049 27.1977 6.63067 27.1977 6.63086C27.1977 6.63105 27.1977 6.63123 27.1977 6.63142C27.1977 6.63161 27.1977 6.6318 27.1977 6.63198C27.1977 6.63217 27.1977 6.63236 27.1977 6.63255C27.1977 6.63273 27.1977 6.63292 27.1977 6.63311C27.1977 6.6333 27.1977 6.63349 27.1977 6.63368C27.1977 6.63387 27.1977 6.63406 27.1977 6.63424C27.1977 6.63443 27.1977 6.63462 27.1977 6.63481C27.1977 6.635 27.1977 6.63519 27.1977 6.63538C27.1977 6.63557 27.1977 6.63577 27.1977 6.63596C27.1977 6.63615 27.1977 6.63634 27.1977 6.63653C27.1977 6.63672 27.1977 6.63691 27.1977 6.6371C27.1977 6.6373 27.1977 6.63749 27.1977 6.63768C27.1977 6.63787 27.1977 6.63807 27.1977 6.63826C27.1977 6.63845 27.1977 6.63864 27.1977 6.63884C27.1977 6.63903 27.1977 6.63922 27.1977 6.63942C27.1977 6.63961 27.1977 6.6398 27.1977 6.64C27.1977 6.64019 27.1977 6.64039 27.1977 6.64058C27.1977 6.64078 27.1977 6.64097 27.1977 6.64117C27.1977 6.64136 27.1977 6.64156 27.1977 6.64175C27.1977 6.64195 27.1977 6.64214 27.1977 6.64234C27.1977 6.64253 27.1977 6.64273 27.1977 6.64293C27.1977 6.64312 27.1977 6.64332 27.1977 6.64352C27.1977 6.64371 27.1977 6.64391 27.1977 6.64411C27.1977 6.6443 27.1977 6.6445 27.1977 6.6447C27.1977 6.6449 27.1977 6.64509 27.1977 6.64529C27.1977 6.64549 27.1977 6.64569 27.1977 6.64589C27.1977 6.64609 27.1977 6.64629 27.1977 6.64648C27.1977 6.64668 27.1977 6.64688 27.1977 6.64708C27.1977 6.64728 27.1977 6.64748 27.1977 6.64768C27.1977 6.64788 27.1977 6.64808 27.1977 6.64828C27.1977 6.64848 27.1977 6.64868 27.1977 6.64888C27.1977 6.64908 27.1977 6.64928 27.1977 6.64948C27.1977 6.64968 27.1977 6.64989 27.1977 6.65009C27.1977 6.65029 27.1977 6.65049 27.1977 6.65069C27.1977 6.65089 27.1977 6.6511 27.1977 6.6513C27.1977 6.6515 27.1977 6.6517 27.1977 6.65191C27.1977 6.65211 27.1977 6.65231 27.1977 6.65251C27.1977 6.65272 27.1977 6.65292 27.1977 6.65312C27.1977 6.65333 27.1977 6.65353 27.1977 6.65374C27.1977 6.65394 27.1977 6.65414 27.1977 6.65435C27.1977 6.65455 27.1977 6.65476 27.1977 6.65496C27.1977 6.65517 27.1977 6.65537 27.1977 6.65558C27.1977 6.65578 27.1977 6.65599 27.1977 6.65619C27.1977 6.6564 27.1977 6.6566 27.1977 6.65681C27.1977 6.65701 27.1977 6.65722 27.1977 6.65743C27.1977 6.65763 27.1977 6.65784 27.1977 6.65805C27.1977 6.65825 27.1977 6.65846 27.1977 6.65867C27.1977 6.65887 27.1977 6.65908 27.1977 6.65929C27.1977 6.65949 27.1977 6.6597 27.1977 6.65991C27.1977 6.66012 27.1977 6.66033 27.1977 6.66053C27.1977 6.66074 27.1977 6.66095 27.1977 6.66116C27.1977 6.66137 27.1977 6.66158 27.1977 6.66178C27.1977 6.66199 27.1977 6.6622 27.1977 6.66241C27.1977 6.66262 27.1977 6.66283 27.1977 6.66304C27.1977 6.66325 27.1977 6.66346 27.1977 6.66367C27.1977 6.66388 27.1977 6.66409 27.1977 6.6643C27.1977 6.66451 27.1977 6.66472 27.1977 6.66493C27.1977 6.66514 27.1977 6.66535 27.1977 6.66556C27.1977 6.66577 27.1977 6.66598 27.1977 6.6662C27.1977 6.66641 27.1977 6.66662 27.1977 6.66683C27.1977 6.66704 27.1977 6.66725 27.1977 6.66747C27.1977 6.66768 27.1977 6.66789 27.1977 6.6681C27.1977 6.66831 27.1977 6.66853 27.1977 6.66874C27.1977 6.66895 27.1977 6.66917 27.1977 6.66938C27.1977 6.66959 27.1977 6.6698 27.1977 6.67002C27.1977 6.67023 27.1977 6.67044 27.1977 6.67066C27.1977 6.67087 27.1977 6.67109 27.1977 6.6713C27.1977 6.67151 27.1977 6.67173 27.1977 6.67194C27.1977 6.67216 27.1977 6.67237 27.1977 6.67259C27.1977 6.6728 27.1977 6.67302 27.1977 6.67323C27.1977 6.67345 27.1977 6.67366 27.1977 6.67388C27.1977 6.67409 27.1977 6.67431 27.1977 6.67452C27.1977 6.67474 27.1977 6.67495 27.1977 6.67517C27.1977 6.67539 27.1977 6.6756 27.1977 6.67582C27.1977 6.67604 27.1977 6.67625 27.1977 6.67647C27.1977 6.67668 27.1977 6.6769 27.1977 6.67712C27.1977 6.67734 27.1977 6.67755 27.1977 6.67777C27.1977 6.67799 27.1977 6.6782 27.1977 6.67842C27.1977 6.67864 27.1977 6.67886 27.1977 6.67907C27.1977 6.67929 27.1977 6.67951 27.1977 6.67973C27.1977 6.67995 27.1977 6.68017 27.1977 6.68038C27.1977 6.6806 27.1977 6.68082 27.1977 6.68104C27.1977 6.68126 27.1977 6.68148 27.1977 6.6817C27.1977 6.68191 27.1977 6.68213 27.1977 6.68235C27.1977 6.68257 27.1977 6.68279 27.1977 6.68301C27.1977 6.68323 27.1977 6.68345 27.1977 6.68367C27.1977 6.68389 27.1977 6.68411 27.1977 6.68433C27.1977 6.68455 27.1977 6.68477 27.1977 6.68499C27.1977 6.68521 27.1977 6.68543 27.1977 6.68565C27.1977 6.68587 27.1977 6.6861 27.1977 6.68632C27.1977 6.68654 27.1977 6.68676 27.1977 6.68698C27.1977 6.6872 27.1977 6.68742 27.1977 6.68764C27.1977 6.68787 27.1977 6.68809 27.1977 6.68831C27.1977 6.68853 27.1977 6.68875 27.1977 6.68897C27.1977 6.6892 27.1977 6.68942 27.1977 6.68964C27.1977 6.68986 27.1977 6.69009 27.1977 6.69031C27.1977 6.69053 27.1977 6.69075 27.1977 6.69098C27.1977 6.6912 27.1977 6.69142 27.1977 6.69165C27.1977 6.69187 27.1977 6.69209 27.1977 6.69232C27.1977 6.69254 27.1977 6.69276 27.1977 6.69299C27.1977 6.69321 27.1977 6.69343 27.1977 6.69366C27.1977 6.69388 27.1977 6.6941 27.1977 6.69433C27.1977 6.69455 27.1977 6.69478 27.1977 6.695C27.1977 6.69523 27.1977 6.69545 27.1977 6.69567C27.1977 6.6959 27.1977 6.69612 27.1977 6.69635C27.1977 6.69657 27.1977 6.6968 27.1977 6.69702C27.1977 6.69725 27.1977 6.69747 27.1977 6.6977C27.1977 6.69792 27.1977 6.69815 27.1977 6.69838C27.1977 6.6986 27.1977 6.69883 27.1977 6.69905C27.1977 6.69928 27.1977 6.6995 27.1977 6.69973C27.1977 6.69996 27.1977 6.70018 27.1977 6.70041C27.1977 6.70063 27.1977 6.70086 27.1977 6.70109C27.1977 6.70131 27.1977 6.70154 27.1977 6.70177C27.1977 6.70199 27.1977 6.70222 27.1977 6.70245C27.1977 6.70267 27.1977 6.7029 27.1977 6.70313C27.1977 6.70336 27.1977 6.70358 27.1977 6.70381C27.1977 6.70404 27.1977 6.70427 27.1977 6.70449C27.1977 6.70472 27.1977 6.70495 27.1977 6.70518C27.1977 6.7054 27.1977 6.70563 27.1977 6.70586C27.1977 6.70609 27.1977 6.70631 27.1977 6.70654C27.1977 6.70677 27.1977 6.707 27.1977 6.70723C27.1977 6.70746 27.1977 6.70768 27.1977 6.70791C27.1977 6.70814 27.1977 6.70837 27.1977 6.7086C27.1977 6.70883 27.1977 6.70906 27.1977 6.70929C27.1977 6.70951 27.1977 6.70974 27.1977 6.70997C27.1977 6.7102 27.1977 6.71043 27.1977 6.71066C27.1977 6.71089 27.1977 6.71112 27.1977 6.71135C27.1977 6.71158 27.1977 6.71181 27.1977 6.71204C27.1977 6.71227 27.1977 6.7125 27.1977 6.71273C27.1977 6.71296 27.1977 6.71319 27.1977 6.71342C27.1977 6.71365 27.1977 6.71388 27.1977 6.71411C27.1977 6.71434 27.1977 6.71457 27.1977 6.7148C27.1977 6.71503 27.1977 6.71526 27.1977 6.71549C27.1977 6.71572 27.1977 6.71595 27.1977 6.71618C27.1977 6.71641 27.1977 6.71664 27.1977 6.71687C27.1977 6.7171 27.1977 6.71734 27.1977 6.71757C27.1977 6.7178 27.1977 6.71803 27.1977 6.71826C27.1977 6.71849 27.1977 6.71872 27.1977 6.71895C27.1977 6.71918 27.1977 6.71942 27.1977 6.71965C27.1977 6.71988 27.1977 6.72011 27.1977 6.72034C27.1977 6.72057 27.1977 6.72081 27.1977 6.72104C27.1977 6.72127 27.1977 6.7215 27.1977 6.72173C27.1977 6.72197 27.1977 6.7222 27.1977 6.72243C27.1977 6.72266 27.1977 6.72289 27.1977 6.72313C27.1977 6.72336 27.1977 6.72359 27.1977 6.72382C27.1977 6.72406 27.1977 6.72429 27.1977 6.72452C27.1977 6.72475 27.1977 6.72499 27.1977 6.72522C27.1977 6.72545 27.1977 6.72568 27.1977 6.72592C27.1977 6.72615 27.1977 6.72638 27.1977 6.72662C27.1977 6.72685 27.1977 6.72708 27.1977 6.72732C27.1977 6.72755 27.1977 6.72778 27.1977 6.72802C27.1977 6.72825 27.1977 6.72848 27.1977 6.72871C27.1977 6.72895 27.1977 6.72918 27.1977 6.72942C27.1977 6.72965 27.1977 6.72988 27.1977 6.73012C27.1977 6.73035 27.1977 6.73058 27.1977 6.73082C27.1977 6.73105 27.1977 6.73128 27.1977 6.73152C27.1977 6.73175 27.1977 6.73199 27.1977 6.73222C27.1977 6.73245 27.1977 6.73269 27.1977 6.73292C27.1977 6.73316 27.1977 6.73339 27.1977 6.73362C27.1977 6.73386 27.1977 6.73409 27.1977 6.73433C27.1977 6.73456 27.1977 6.7348 27.1977 6.73503C27.1977 6.73526 27.1977 6.7355 27.1977 6.73573C27.1977 6.73597 27.1977 6.7362 27.1977 6.73644C27.1977 6.73667 27.1977 6.73691 27.1977 6.73714C27.1977 6.73738 27.1977 6.73761 27.1977 6.73785C27.1977 6.73808 27.1977 6.73832 27.1977 6.73855C27.1977 6.73879 27.1977 6.73902 27.1977 6.73925C27.1977 6.73949 27.1977 6.73973 27.1977 6.73996C27.1977 6.7402 27.1977 6.74043 27.1977 6.74067C27.1977 6.7409 27.1977 6.74114 27.1977 6.74137C27.1977 6.74161 27.1977 6.74184 27.1977 6.74208C27.1977 6.74231 27.1977 6.74255 27.1977 6.74278C27.1977 6.74302 27.1977 6.74325 27.1977 6.74349C27.1977 6.74372 27.1977 6.74396 27.1977 6.7442C27.1977 6.74443 27.1977 6.74467 27.1977 6.7449C27.1977 6.74514 27.1977 6.74537 27.1977 6.74561C27.1977 6.74585 27.1977 6.74608 27.1977 6.74632C27.1977 6.74655 27.1977 6.74679 27.1977 6.74702C27.1977 6.74726 27.1977 6.7475 27.1977 6.74773C27.1977 6.74797 27.1977 6.7482 27.1977 6.74844C27.1977 6.74868 27.1977 6.74891 27.1977 6.74915C27.1977 6.74938 27.1977 6.74962 27.1977 6.74986C27.1977 6.75009 27.1977 6.75033 27.1977 6.75056C27.1977 6.7508 27.1977 6.75104 27.1977 6.75127C27.1977 6.75151 27.1977 6.75174 27.1977 6.75198C27.1977 6.75222 27.1977 6.75245 27.1977 6.75269C27.1977 6.75293 27.1977 6.75316 27.1977 6.7534C27.1977 6.75363 27.1977 6.75387 27.1977 6.75411C27.1977 6.75434 27.1977 6.75458 27.1977 6.75482C27.1977 6.75505 27.1977 6.75529 27.1977 6.75553C27.1977 6.75576 27.1977 6.756 27.1977 6.75623C27.1977 6.75647 27.1977 6.75671 27.1977 6.75694C27.1977 6.75718 27.1977 6.75742 27.1977 6.75765C27.1977 6.75789 27.1977 6.75813 27.1977 6.75836C27.1977 6.7586 27.1977 6.75884 27.1977 6.75907C27.1977 6.75931 27.1977 6.75954 27.1977 6.75978C27.1977 6.76002 27.1977 6.76025 27.1977 6.76049C27.1977 6.76073 27.1977 6.76096 27.1977 6.7612C27.1977 6.76144 27.1977 6.76167 27.1977 6.76191C27.1977 6.76215 27.1977 6.76238 27.1977 6.76262C27.1977 6.76286 27.1977 6.76309 27.1977 6.76333C27.1977 6.76357 27.1977 6.7638 27.1977 6.76404C27.1977 6.76428 27.1977 6.76451 27.1977 6.76475C27.1977 6.76499 27.1977 6.76522 27.1977 6.76546C27.1977 6.7657 27.1977 6.76593 27.1977 6.76617C27.1977 6.76641 27.1977 6.76664 27.1977 6.76688C27.1977 6.76712 27.1977 6.76735 27.1977 6.76759C27.1977 6.76783 27.1977 6.76806 27.1977 6.7683C27.1977 6.76854 27.1977 6.76877 27.1977 6.76901C27.1977 6.76925 27.1977 6.76948 27.1977 6.76972C27.1977 6.76996 27.1977 6.77019 27.1977 6.77043C27.1977 6.77067 27.1977 6.7709 27.1977 6.77114C27.1977 6.77138 27.1977 6.77161 27.1977 6.77185C27.1977 6.77208 27.1977 6.77232 27.1977 6.77256C27.1977 6.77279 27.1977 6.77303 27.1977 6.77327C27.1977 6.7735 27.1977 6.77374 27.1977 6.77398C27.1977 6.77421 27.1977 6.77445 27.1977 6.77469C27.1977 6.77492 27.1977 6.77516 27.1977 6.77539C27.1977 6.77563 27.1977 6.77587 27.1977 6.7761C27.1977 6.77634 27.1977 6.77658 27.1977 6.77681C27.1977 6.77705 27.1977 6.77729 27.1977 6.77752C27.1977 6.77776 27.1977 6.77799 27.1977 6.77823C27.1977 6.77847 27.1977 6.7787 27.1977 6.77894C27.1977 6.77918 27.1977 6.77941 27.1977 6.77965C27.1977 6.77988 27.1977 6.78012 27.1977 6.78036C27.1977 6.78059 27.1977 6.78083 27.1977 6.78106C27.1977 6.7813 27.1977 6.78154 27.1977 6.78177C27.1977 6.78201 27.1977 6.78224 27.1977 6.78248C27.1977 6.78272 27.1977 6.78295 27.1977 6.78319C27.1977 6.78342 27.1977 6.78366 27.1977 6.7839C27.1977 6.78413 27.1977 6.78437 27.1977 6.7846C27.1977 6.78484 27.1977 6.78507 27.1977 6.78531C27.1977 6.78555 27.1977 6.78578 27.1977 6.78602C27.1977 6.78625 27.1977 6.78649 27.1977 6.78672C27.1977 6.78696 27.1977 6.7872 27.1977 6.78743C27.1977 6.78767 27.1977 6.7879 27.1977 6.78814C27.1977 6.78837 27.1977 6.78861 27.1977 6.78884C27.1977 6.78908 27.1977 6.78931 27.1977 6.78955C27.1977 6.78978 27.1977 6.79002 27.1977 6.79025C27.1977 6.79049 27.1977 6.79072 27.1977 6.79096C27.1977 6.79119 27.1977 6.79143 27.1977 6.79167C27.1977 6.7919 27.1977 6.79213 27.1977 6.79237C27.1977 6.7926 27.1977 6.79284 27.1977 6.79307C27.1977 6.79331 27.1977 6.79354 27.1977 6.79378C27.1977 6.79401 27.1977 6.79425 27.1977 6.79448C27.1977 6.79472 27.1977 6.79495 27.1977 6.79519C27.1977 6.79542 27.1977 6.79566 27.1977 6.79589C27.1977 6.79612 27.1977 6.79636 27.1977 6.79659C27.1977 6.79683 27.1977 6.79706 27.1977 6.7973C27.1977 6.79753 27.1977 6.79776 27.1977 6.798C27.1977 6.79823 27.1977 6.79847 27.1977 6.7987C27.1977 6.79893 27.1977 6.79917 27.1977 6.7994C27.1977 6.79964 27.1977 6.79987 27.1977 6.8001C27.1977 6.80034 27.1977 6.80057 27.1977 6.8008C27.1977 6.80104 27.1977 6.80127 27.1977 6.8015C27.1977 6.80174 27.1977 6.80197 27.1977 6.80221C27.1977 6.80244 27.1977 6.80267 27.1977 6.8029C27.1977 6.80314 27.1977 6.80337 27.1977 6.8036C27.1977 6.80384 27.1977 6.80407 27.1977 6.8043C27.1977 6.80454 27.1977 6.80477 27.1977 6.805C27.1977 6.80524 27.1977 6.80547 27.1977 6.8057C27.1977 6.80593 27.1977 6.80617 27.1977 6.8064C27.1977 6.80663 27.1977 6.80686 27.1977 6.8071C27.1977 6.80733 27.1977 6.80756 27.1977 6.80779C27.1977 6.80803 27.1977 6.80826 27.1977 6.80849C27.1977 6.80872 27.1977 6.80895 27.1977 6.80919C27.1977 6.80942 27.1977 6.80965 27.1977 6.80988C27.1977 6.81011 27.1977 6.81035 27.1977 6.81058C27.1977 6.81081 27.1977 6.81104 27.1977 6.81127C27.1977 6.8115 27.1977 6.81174 27.1977 6.81197C27.1977 6.8122 27.1977 6.81243 27.1977 6.81266C27.1977 6.81289 27.1977 6.81312 27.1977 6.81335C27.1977 6.81358 27.1977 6.81382 27.1977 6.81405C27.1977 6.81428 27.1977 6.81451 27.1977 6.81474C27.1977 6.81497 27.1977 6.8152 27.1977 6.81543C27.1977 6.81566 27.1977 6.81589 27.1977 6.81612C27.1977 6.81635 27.1977 6.81658 27.1977 6.81681C27.1977 6.81704 27.1977 6.81727 27.1977 6.8175C27.1977 6.81773 27.1977 6.81796 27.1977 6.81819C27.1977 6.81842 27.1977 6.81865 27.1977 6.81888C27.1977 6.81911 27.1977 6.81934 27.1977 6.81957C27.1977 6.8198 27.1977 6.82003 27.1977 6.82026C27.1977 6.82049 27.1977 6.82072 27.1977 6.82095C27.1977 6.82118 27.1977 6.82141 27.1977 6.82163C27.1977 6.82186 27.1977 6.82209 27.1977 6.82232C27.1977 6.82255 27.1977 6.82278 27.1977 6.82301C27.1977 6.82324 27.1977 6.82346 27.1977 6.82369C27.1977 6.82392 27.1977 6.82415 27.1977 6.82438C27.1977 6.82461 27.1977 6.82483 27.1977 6.82506C27.1977 6.82529 27.1977 6.82552 27.1977 6.82574C27.1977 6.82597 27.1977 6.8262 27.1977 6.82643C27.1977 6.82665 27.1977 6.82688 27.1977 6.82711C27.1977 6.82734 27.1977 6.82756 27.1977 6.82779C27.1977 6.82802 27.1977 6.82825 27.1977 6.82847C27.1977 6.8287 27.1977 6.82893 27.1977 6.82915C27.1977 6.82938 27.1977 6.82961 27.1977 6.82983C27.1977 6.83006 27.1977 6.83029 27.1977 6.83051C27.1977 6.83074 27.1977 6.83096 27.1977 6.83119C27.1977 6.83142 27.1977 6.83164 27.1977 6.83187C27.1977 6.83209 27.1977 6.83232 27.1977 6.83254C27.1977 6.83277 27.1977 6.833 27.1977 6.83322C27.1977 6.83345 27.1977 6.83367 27.1977 6.8339C27.1977 6.83412 27.1977 6.83435 27.1977 6.83457C27.1977 6.8348 27.1977 6.83502 27.1977 6.83525C27.1977 6.83547 27.1977 6.83569 27.1977 6.83592C27.1977 6.83614 27.1977 6.83637 27.1977 6.83659C27.1977 6.83682 27.1977 6.83704 27.1977 6.83726C27.1977 6.83749 27.1977 6.83771 27.1977 6.83793C27.1977 6.83816 27.1977 6.83838 27.1977 6.8386C27.1977 6.83883 27.1977 6.83905 27.1977 6.83927C27.1977 6.8395 27.1977 6.83972 27.1977 6.83994C27.1977 6.84017 27.1977 6.84039 27.1977 6.84061C27.1977 6.84083 27.1977 6.84106 27.1977 6.84128C27.1977 6.8415 27.1977 6.84172 27.1977 6.84195C27.1977 6.84217 27.1977 6.84239 27.1977 6.84261C27.1977 6.84283 27.1977 6.84305 27.1977 6.84328C27.1977 6.8435 27.1977 6.84372 27.1977 6.84394C27.1977 6.84416 27.1977 6.84438 27.1977 6.8446C27.1977 6.84482 27.1977 6.84505 27.1977 6.84527C27.1977 6.84549 27.1977 6.84571 27.1977 6.84593C27.1977 6.84615 27.1977 6.84637 27.1977 6.84659C27.1977 6.84681 27.1977 6.84703 27.1977 6.84725C27.1977 6.84747 27.1977 6.84769 27.1977 6.84791C27.1977 6.84813 27.1977 6.84835 27.1977 6.84857C27.1977 6.84879 27.1977 6.84901 27.1977 6.84922C27.1977 6.84944 27.1977 6.84966 27.1977 6.84988C27.1977 6.8501 27.1977 6.85032 27.1977 6.85054C27.1977 6.85075 27.1977 6.85097 27.1977 6.85119C27.1977 6.85141 27.1977 6.85163 27.1977 6.85185C27.1977 6.85206 27.1977 6.85228 27.1977 6.8525C27.1977 6.85272 27.1977 6.85293 27.1977 6.85315C27.1977 6.85337 27.1977 6.85358 27.1977 6.8538C27.1977 6.85402 27.1977 6.85424 27.1977 6.85445C27.1977 6.85467 27.1977 6.85488 27.1977 6.8551C27.1977 6.85532 27.1977 6.85553 27.1977 6.85575C27.1977 6.85597 27.1977 6.85618 27.1977 6.8564C27.1977 6.85661 27.1977 6.85683 27.1977 6.85704C27.1977 6.85726 27.1977 6.85747 27.1977 6.85769C27.1977 6.8579 27.1977 6.85812 27.1977 6.85833C27.1977 6.85855 27.1977 6.85876 27.1977 6.85898C27.1977 6.85919 27.1977 6.85941 27.1977 6.85962C27.1977 6.85983 27.1977 6.86005 27.1977 6.86026C27.1977 6.86048 27.1977 6.86069 27.1977 6.8609C27.1977 6.86112 27.1977 6.86133 27.1977 6.86154C27.1977 6.86175 27.1977 6.86197 27.1977 6.86218C27.1977 6.86239 27.1977 6.86261 27.1977 6.86282C27.1977 6.86303 27.1977 6.86324 27.1977 6.86345C27.1977 6.86367 27.1977 6.86388 27.1977 6.86409C27.1977 6.8643 27.1977 6.86451 27.1977 6.86472C27.1977 6.86494 27.1977 6.86515 27.1977 6.86536C27.1977 6.86557 27.1977 6.86578 27.1977 6.86599C27.1977 6.8662 27.1977 6.86641 27.1977 6.86662C27.1977 6.86683 27.1977 6.86704 27.1977 6.86725C27.1977 6.86746 27.1977 6.86767 27.1977 6.86788C27.1977 6.86809 27.1977 6.8683 27.1977 6.86851C27.1977 6.86872 27.1977 6.86893 27.1977 6.86914C27.1977 6.86934 27.1977 6.86955 27.1977 6.86976C27.1977 6.86997 27.1977 6.87018 27.1977 6.87039C27.1977 6.87059 27.1977 6.8708 27.1977 6.87101C27.1977 6.87122 27.1977 6.87143 27.1977 6.87163C27.1977 6.87184 27.1977 6.87205 27.1977 6.87225C27.1977 6.87246 27.1977 6.87267 27.1977 6.87287C27.1977 6.87308 27.1977 6.87329 27.1977 6.87349C27.1977 6.8737 27.1977 6.87391 27.1977 6.87411C27.1977 6.87432 27.1977 6.87452 27.1977 6.87473C27.1977 6.87493 27.1977 6.87514 27.1977 6.87534C27.1977 6.87555 27.1977 6.87575 27.1977 6.87596C27.1977 6.87616 27.1977 6.87637 27.1977 6.87657C27.1977 6.87678 27.1977 6.87698 27.1977 6.87718C27.1977 6.87739 27.1977 6.87759 27.1977 6.8778C27.1977 6.878 27.1977 6.8782 27.1977 6.87841C27.1977 6.87861 27.1977 6.87881 27.1977 6.87901C27.1977 6.87922 27.1977 6.87942 27.1977 6.87962C27.1977 6.87982 27.1977 6.88003 27.1977 6.88023C27.1977 6.88043 27.1977 6.88063 27.1977 6.88083C27.1977 6.88103 27.1977 6.88124 27.1977 6.88144C27.1977 6.88164 27.1977 6.88184 27.1977 6.88204C27.1977 6.88224 27.1977 6.88244 27.1977 6.88264C27.1977 6.88284 27.1977 6.88304 27.1977 6.88324C27.1977 6.88344 27.1977 6.88364 27.1977 6.88384C27.1977 6.88404 27.1977 6.88424 27.1977 6.88444C27.1977 6.88463 27.1977 6.88483 27.1977 6.88503C27.1977 6.88523 27.1977 6.88543 27.1977 6.88563C27.1977 6.88583 27.1977 6.88602 27.1977 6.88622C27.1977 6.88642 27.1977 6.88662 27.1977 6.88681C27.1977 6.88701 27.1977 6.88721 27.1977 6.8874C27.1977 6.8876 27.1977 6.8878 27.1977 6.88799C27.1977 6.88819 27.1977 6.88839 27.1977 6.88858C27.1977 6.88878 27.1977 6.88897 27.1977 6.88917C27.1977 6.88936 27.1977 6.88956 27.1977 6.88975C27.1977 6.88995 27.1977 6.89014 27.1977 6.89034C27.1977 6.89053 27.1977 6.89073 27.1977 6.89092C27.1977 6.89112 27.1977 6.89131 27.1977 6.8915C27.1977 6.8917 27.1977 6.89189 27.1977 6.89208C27.1977 6.89228 27.1977 6.89247 27.1977 6.89266C27.1977 6.89285 27.1977 6.89305 27.1977 6.89324C27.1977 6.89343 27.1977 6.89362 27.1977 6.89382C27.1977 6.89401 27.1977 6.8942 27.1977 6.89439C27.1977 6.89458 27.1977 6.89477 27.1977 6.89496C27.1977 6.89515 27.1977 6.89535 27.1977 6.89554C27.1977 6.89573 27.1977 6.89592 27.1977 6.89611C27.1977 6.8963 27.1977 6.89649 27.1977 6.89668C27.1977 6.89686 27.1977 6.89705 27.1977 6.89724C27.1977 6.89743 27.1977 6.89762 27.1977 6.89781C27.1977 6.898 27.1977 6.89819 27.1977 6.89837C27.1977 6.89856 27.1977 6.89875 27.1977 6.89894C27.1977 6.89912 27.1977 6.89931 27.1977 6.8995C27.1977 6.89969 27.1977 6.89987 27.1977 6.90006C27.1977 6.90025 27.1977 6.90043 27.1977 6.90062C27.1977 6.9008 27.1977 6.90099 27.1977 6.90118C27.1977 6.90136 27.1977 6.90155 27.1977 6.90173C27.1977 6.90192 27.1977 6.9021 27.1977 6.90229C27.1977 6.90247 27.1977 6.90265 27.1977 6.90284C27.1977 6.90302 27.1977 6.90321 27.1977 6.90339C27.1977 6.90357 27.1977 6.90376 27.1977 6.90394C27.1977 6.90412 27.1977 6.90431 27.1977 6.90449C27.1977 6.90467 27.1977 6.90485 27.1977 6.90504C27.1977 6.90522 27.1977 6.9054 27.1977 6.90558C27.1977 6.90576 27.1977 6.90594 27.1977 6.90612C27.1977 6.90631 27.1977 6.90649 27.1977 6.90667C27.1977 6.90685 27.1977 6.90703 27.1977 6.90721C27.1977 6.90739 27.1977 6.90757 27.1977 6.90775C27.1977 6.90793 27.1977 6.9081 27.1977 6.90828C27.1977 6.90846 27.1977 6.90864 27.1977 6.90882C27.1977 6.909 27.1977 6.90918 27.1977 6.90935C27.1977 6.90953 27.1977 6.90971 27.1977 6.90989C27.1977 6.91006 27.1977 6.91024 27.1977 6.91042C27.1977 6.91059 27.1977 6.91077 27.1977 6.91095C27.1977 6.91112 27.1977 6.9113 27.1977 6.91148C27.1977 6.91165 27.1977 6.91183 27.1977 6.912C27.1977 6.91218 27.1977 6.91235 27.1977 6.91253C27.1977 6.9127 27.1977 6.91288 27.1977 6.91305C27.1977 6.91322 27.1977 6.9134 27.1977 6.91357C27.1977 6.91374 27.1977 6.91392 27.1977 6.91409C27.1977 6.91426 27.1977 6.91444 27.1977 6.91461C27.1977 6.91478 27.1977 6.91495 27.1977 6.91512C27.1977 6.9153 27.1977 6.91547 27.1977 6.91564C27.1977 6.91581 27.1977 6.91598 27.1977 6.91615C27.1977 6.91632 27.1977 6.91649 27.1977 6.91666C27.1977 6.91683 27.1977 6.917 27.1977 6.91717C27.1977 6.91734 27.1977 6.91751 27.1977 6.91768C27.1977 6.91785 27.1977 6.91802 27.1977 6.91819C27.1977 6.91836 27.1977 6.91852 27.1977 6.91869C27.1977 6.91886 27.1977 6.91903 27.1977 6.91919C27.1977 6.91936 27.1977 6.91953 27.1977 6.9197C27.1977 6.91986 27.1977 6.92003 27.1977 6.9202C27.1977 6.92036 27.1977 6.92053 27.1977 6.92069C27.1977 6.92086 27.1977 6.92102 27.1977 6.92119C27.1977 6.92135 27.1977 6.92152 27.1977 6.92168C27.1977 6.92185 27.1977 6.92201 27.1977 6.92217C27.1977 6.92234 27.1977 6.9225 27.1977 6.92267C27.1977 6.92283 27.1977 6.92299 27.1977 6.92315C27.1977 6.92332 27.1977 6.92348 27.1977 6.92364C27.1977 6.9238 27.1977 6.92396 27.1977 6.92413C27.1977 6.92429 27.1977 6.92445 27.1977 6.92461C27.1977 6.92477 27.1977 6.92493 27.1977 6.92509C27.1977 6.92525 27.1977 6.92541 27.1977 6.92557C27.1977 6.92573 27.1977 6.92589 27.1977 6.92605C27.1977 6.92621 27.1977 6.92637 27.1977 6.92652C27.1977 6.92668 27.1977 6.92684 27.1977 6.927H28.6977C28.6977 6.92684 28.6977 6.92668 28.6977 6.92652C28.6977 6.92637 28.6977 6.92621 28.6977 6.92605C28.6977 6.92589 28.6977 6.92573 28.6977 6.92557C28.6977 6.92541 28.6977 6.92525 28.6977 6.92509C28.6977 6.92493 28.6977 6.92477 28.6977 6.92461C28.6977 6.92445 28.6977 6.92429 28.6977 6.92413C28.6977 6.92396 28.6977 6.9238 28.6977 6.92364C28.6977 6.92348 28.6977 6.92332 28.6977 6.92315C28.6977 6.92299 28.6977 6.92283 28.6977 6.92267C28.6977 6.9225 28.6977 6.92234 28.6977 6.92217C28.6977 6.92201 28.6977 6.92185 28.6977 6.92168C28.6977 6.92152 28.6977 6.92135 28.6977 6.92119C28.6977 6.92102 28.6977 6.92086 28.6977 6.92069C28.6977 6.92053 28.6977 6.92036 28.6977 6.9202C28.6977 6.92003 28.6977 6.91986 28.6977 6.9197C28.6977 6.91953 28.6977 6.91936 28.6977 6.91919C28.6977 6.91903 28.6977 6.91886 28.6977 6.91869C28.6977 6.91852 28.6977 6.91836 28.6977 6.91819C28.6977 6.91802 28.6977 6.91785 28.6977 6.91768C28.6977 6.91751 28.6977 6.91734 28.6977 6.91717C28.6977 6.917 28.6977 6.91683 28.6977 6.91666C28.6977 6.91649 28.6977 6.91632 28.6977 6.91615C28.6977 6.91598 28.6977 6.91581 28.6977 6.91564C28.6977 6.91547 28.6977 6.9153 28.6977 6.91512C28.6977 6.91495 28.6977 6.91478 28.6977 6.91461C28.6977 6.91444 28.6977 6.91426 28.6977 6.91409C28.6977 6.91392 28.6977 6.91374 28.6977 6.91357C28.6977 6.9134 28.6977 6.91322 28.6977 6.91305C28.6977 6.91288 28.6977 6.9127 28.6977 6.91253C28.6977 6.91235 28.6977 6.91218 28.6977 6.912C28.6977 6.91183 28.6977 6.91165 28.6977 6.91148C28.6977 6.9113 28.6977 6.91112 28.6977 6.91095C28.6977 6.91077 28.6977 6.91059 28.6977 6.91042C28.6977 6.91024 28.6977 6.91006 28.6977 6.90989C28.6977 6.90971 28.6977 6.90953 28.6977 6.90935C28.6977 6.90918 28.6977 6.909 28.6977 6.90882C28.6977 6.90864 28.6977 6.90846 28.6977 6.90828C28.6977 6.9081 28.6977 6.90793 28.6977 6.90775C28.6977 6.90757 28.6977 6.90739 28.6977 6.90721C28.6977 6.90703 28.6977 6.90685 28.6977 6.90667C28.6977 6.90649 28.6977 6.90631 28.6977 6.90612C28.6977 6.90594 28.6977 6.90576 28.6977 6.90558C28.6977 6.9054 28.6977 6.90522 28.6977 6.90504C28.6977 6.90485 28.6977 6.90467 28.6977 6.90449C28.6977 6.90431 28.6977 6.90412 28.6977 6.90394C28.6977 6.90376 28.6977 6.90357 28.6977 6.90339C28.6977 6.90321 28.6977 6.90302 28.6977 6.90284C28.6977 6.90265 28.6977 6.90247 28.6977 6.90229C28.6977 6.9021 28.6977 6.90192 28.6977 6.90173C28.6977 6.90155 28.6977 6.90136 28.6977 6.90118C28.6977 6.90099 28.6977 6.9008 28.6977 6.90062C28.6977 6.90043 28.6977 6.90025 28.6977 6.90006C28.6977 6.89987 28.6977 6.89969 28.6977 6.8995C28.6977 6.89931 28.6977 6.89912 28.6977 6.89894C28.6977 6.89875 28.6977 6.89856 28.6977 6.89837C28.6977 6.89819 28.6977 6.898 28.6977 6.89781C28.6977 6.89762 28.6977 6.89743 28.6977 6.89724C28.6977 6.89705 28.6977 6.89686 28.6977 6.89668C28.6977 6.89649 28.6977 6.8963 28.6977 6.89611C28.6977 6.89592 28.6977 6.89573 28.6977 6.89554C28.6977 6.89535 28.6977 6.89515 28.6977 6.89496C28.6977 6.89477 28.6977 6.89458 28.6977 6.89439C28.6977 6.8942 28.6977 6.89401 28.6977 6.89382C28.6977 6.89362 28.6977 6.89343 28.6977 6.89324C28.6977 6.89305 28.6977 6.89285 28.6977 6.89266C28.6977 6.89247 28.6977 6.89228 28.6977 6.89208C28.6977 6.89189 28.6977 6.8917 28.6977 6.8915C28.6977 6.89131 28.6977 6.89112 28.6977 6.89092C28.6977 6.89073 28.6977 6.89053 28.6977 6.89034C28.6977 6.89014 28.6977 6.88995 28.6977 6.88975C28.6977 6.88956 28.6977 6.88936 28.6977 6.88917C28.6977 6.88897 28.6977 6.88878 28.6977 6.88858C28.6977 6.88839 28.6977 6.88819 28.6977 6.88799C28.6977 6.8878 28.6977 6.8876 28.6977 6.8874C28.6977 6.88721 28.6977 6.88701 28.6977 6.88681C28.6977 6.88662 28.6977 6.88642 28.6977 6.88622C28.6977 6.88602 28.6977 6.88583 28.6977 6.88563C28.6977 6.88543 28.6977 6.88523 28.6977 6.88503C28.6977 6.88483 28.6977 6.88463 28.6977 6.88444C28.6977 6.88424 28.6977 6.88404 28.6977 6.88384C28.6977 6.88364 28.6977 6.88344 28.6977 6.88324C28.6977 6.88304 28.6977 6.88284 28.6977 6.88264C28.6977 6.88244 28.6977 6.88224 28.6977 6.88204C28.6977 6.88184 28.6977 6.88164 28.6977 6.88144C28.6977 6.88124 28.6977 6.88103 28.6977 6.88083C28.6977 6.88063 28.6977 6.88043 28.6977 6.88023C28.6977 6.88003 28.6977 6.87982 28.6977 6.87962C28.6977 6.87942 28.6977 6.87922 28.6977 6.87901C28.6977 6.87881 28.6977 6.87861 28.6977 6.87841C28.6977 6.8782 28.6977 6.878 28.6977 6.8778C28.6977 6.87759 28.6977 6.87739 28.6977 6.87718C28.6977 6.87698 28.6977 6.87678 28.6977 6.87657C28.6977 6.87637 28.6977 6.87616 28.6977 6.87596C28.6977 6.87575 28.6977 6.87555 28.6977 6.87534C28.6977 6.87514 28.6977 6.87493 28.6977 6.87473C28.6977 6.87452 28.6977 6.87432 28.6977 6.87411C28.6977 6.87391 28.6977 6.8737 28.6977 6.87349C28.6977 6.87329 28.6977 6.87308 28.6977 6.87287C28.6977 6.87267 28.6977 6.87246 28.6977 6.87225C28.6977 6.87205 28.6977 6.87184 28.6977 6.87163C28.6977 6.87143 28.6977 6.87122 28.6977 6.87101C28.6977 6.8708 28.6977 6.87059 28.6977 6.87039C28.6977 6.87018 28.6977 6.86997 28.6977 6.86976C28.6977 6.86955 28.6977 6.86934 28.6977 6.86914C28.6977 6.86893 28.6977 6.86872 28.6977 6.86851C28.6977 6.8683 28.6977 6.86809 28.6977 6.86788C28.6977 6.86767 28.6977 6.86746 28.6977 6.86725C28.6977 6.86704 28.6977 6.86683 28.6977 6.86662C28.6977 6.86641 28.6977 6.8662 28.6977 6.86599C28.6977 6.86578 28.6977 6.86557 28.6977 6.86536C28.6977 6.86515 28.6977 6.86494 28.6977 6.86472C28.6977 6.86451 28.6977 6.8643 28.6977 6.86409C28.6977 6.86388 28.6977 6.86367 28.6977 6.86345C28.6977 6.86324 28.6977 6.86303 28.6977 6.86282C28.6977 6.86261 28.6977 6.86239 28.6977 6.86218C28.6977 6.86197 28.6977 6.86175 28.6977 6.86154C28.6977 6.86133 28.6977 6.86112 28.6977 6.8609C28.6977 6.86069 28.6977 6.86048 28.6977 6.86026C28.6977 6.86005 28.6977 6.85983 28.6977 6.85962C28.6977 6.85941 28.6977 6.85919 28.6977 6.85898C28.6977 6.85876 28.6977 6.85855 28.6977 6.85833C28.6977 6.85812 28.6977 6.8579 28.6977 6.85769C28.6977 6.85747 28.6977 6.85726 28.6977 6.85704C28.6977 6.85683 28.6977 6.85661 28.6977 6.8564C28.6977 6.85618 28.6977 6.85597 28.6977 6.85575C28.6977 6.85553 28.6977 6.85532 28.6977 6.8551C28.6977 6.85488 28.6977 6.85467 28.6977 6.85445C28.6977 6.85424 28.6977 6.85402 28.6977 6.8538C28.6977 6.85358 28.6977 6.85337 28.6977 6.85315C28.6977 6.85293 28.6977 6.85272 28.6977 6.8525C28.6977 6.85228 28.6977 6.85206 28.6977 6.85185C28.6977 6.85163 28.6977 6.85141 28.6977 6.85119C28.6977 6.85097 28.6977 6.85075 28.6977 6.85054C28.6977 6.85032 28.6977 6.8501 28.6977 6.84988C28.6977 6.84966 28.6977 6.84944 28.6977 6.84922C28.6977 6.84901 28.6977 6.84879 28.6977 6.84857C28.6977 6.84835 28.6977 6.84813 28.6977 6.84791C28.6977 6.84769 28.6977 6.84747 28.6977 6.84725C28.6977 6.84703 28.6977 6.84681 28.6977 6.84659C28.6977 6.84637 28.6977 6.84615 28.6977 6.84593C28.6977 6.84571 28.6977 6.84549 28.6977 6.84527C28.6977 6.84505 28.6977 6.84482 28.6977 6.8446C28.6977 6.84438 28.6977 6.84416 28.6977 6.84394C28.6977 6.84372 28.6977 6.8435 28.6977 6.84328C28.6977 6.84305 28.6977 6.84283 28.6977 6.84261C28.6977 6.84239 28.6977 6.84217 28.6977 6.84195C28.6977 6.84172 28.6977 6.8415 28.6977 6.84128C28.6977 6.84106 28.6977 6.84083 28.6977 6.84061C28.6977 6.84039 28.6977 6.84017 28.6977 6.83994C28.6977 6.83972 28.6977 6.8395 28.6977 6.83927C28.6977 6.83905 28.6977 6.83883 28.6977 6.8386C28.6977 6.83838 28.6977 6.83816 28.6977 6.83793C28.6977 6.83771 28.6977 6.83749 28.6977 6.83726C28.6977 6.83704 28.6977 6.83682 28.6977 6.83659C28.6977 6.83637 28.6977 6.83614 28.6977 6.83592C28.6977 6.83569 28.6977 6.83547 28.6977 6.83525C28.6977 6.83502 28.6977 6.8348 28.6977 6.83457C28.6977 6.83435 28.6977 6.83412 28.6977 6.8339C28.6977 6.83367 28.6977 6.83345 28.6977 6.83322C28.6977 6.833 28.6977 6.83277 28.6977 6.83254C28.6977 6.83232 28.6977 6.83209 28.6977 6.83187C28.6977 6.83164 28.6977 6.83142 28.6977 6.83119C28.6977 6.83096 28.6977 6.83074 28.6977 6.83051C28.6977 6.83029 28.6977 6.83006 28.6977 6.82983C28.6977 6.82961 28.6977 6.82938 28.6977 6.82915C28.6977 6.82893 28.6977 6.8287 28.6977 6.82847C28.6977 6.82825 28.6977 6.82802 28.6977 6.82779C28.6977 6.82756 28.6977 6.82734 28.6977 6.82711C28.6977 6.82688 28.6977 6.82665 28.6977 6.82643C28.6977 6.8262 28.6977 6.82597 28.6977 6.82574C28.6977 6.82552 28.6977 6.82529 28.6977 6.82506C28.6977 6.82483 28.6977 6.82461 28.6977 6.82438C28.6977 6.82415 28.6977 6.82392 28.6977 6.82369C28.6977 6.82346 28.6977 6.82324 28.6977 6.82301C28.6977 6.82278 28.6977 6.82255 28.6977 6.82232C28.6977 6.82209 28.6977 6.82186 28.6977 6.82163C28.6977 6.82141 28.6977 6.82118 28.6977 6.82095C28.6977 6.82072 28.6977 6.82049 28.6977 6.82026C28.6977 6.82003 28.6977 6.8198 28.6977 6.81957C28.6977 6.81934 28.6977 6.81911 28.6977 6.81888C28.6977 6.81865 28.6977 6.81842 28.6977 6.81819C28.6977 6.81796 28.6977 6.81773 28.6977 6.8175C28.6977 6.81727 28.6977 6.81704 28.6977 6.81681C28.6977 6.81658 28.6977 6.81635 28.6977 6.81612C28.6977 6.81589 28.6977 6.81566 28.6977 6.81543C28.6977 6.8152 28.6977 6.81497 28.6977 6.81474C28.6977 6.81451 28.6977 6.81428 28.6977 6.81405C28.6977 6.81382 28.6977 6.81358 28.6977 6.81335C28.6977 6.81312 28.6977 6.81289 28.6977 6.81266C28.6977 6.81243 28.6977 6.8122 28.6977 6.81197C28.6977 6.81174 28.6977 6.8115 28.6977 6.81127C28.6977 6.81104 28.6977 6.81081 28.6977 6.81058C28.6977 6.81035 28.6977 6.81011 28.6977 6.80988C28.6977 6.80965 28.6977 6.80942 28.6977 6.80919C28.6977 6.80895 28.6977 6.80872 28.6977 6.80849C28.6977 6.80826 28.6977 6.80803 28.6977 6.80779C28.6977 6.80756 28.6977 6.80733 28.6977 6.8071C28.6977 6.80686 28.6977 6.80663 28.6977 6.8064C28.6977 6.80617 28.6977 6.80593 28.6977 6.8057C28.6977 6.80547 28.6977 6.80524 28.6977 6.805C28.6977 6.80477 28.6977 6.80454 28.6977 6.8043C28.6977 6.80407 28.6977 6.80384 28.6977 6.8036C28.6977 6.80337 28.6977 6.80314 28.6977 6.8029C28.6977 6.80267 28.6977 6.80244 28.6977 6.80221C28.6977 6.80197 28.6977 6.80174 28.6977 6.8015C28.6977 6.80127 28.6977 6.80104 28.6977 6.8008C28.6977 6.80057 28.6977 6.80034 28.6977 6.8001C28.6977 6.79987 28.6977 6.79964 28.6977 6.7994C28.6977 6.79917 28.6977 6.79893 28.6977 6.7987C28.6977 6.79847 28.6977 6.79823 28.6977 6.798C28.6977 6.79776 28.6977 6.79753 28.6977 6.7973C28.6977 6.79706 28.6977 6.79683 28.6977 6.79659C28.6977 6.79636 28.6977 6.79612 28.6977 6.79589C28.6977 6.79566 28.6977 6.79542 28.6977 6.79519C28.6977 6.79495 28.6977 6.79472 28.6977 6.79448C28.6977 6.79425 28.6977 6.79401 28.6977 6.79378C28.6977 6.79354 28.6977 6.79331 28.6977 6.79307C28.6977 6.79284 28.6977 6.7926 28.6977 6.79237C28.6977 6.79213 28.6977 6.7919 28.6977 6.79167C28.6977 6.79143 28.6977 6.79119 28.6977 6.79096C28.6977 6.79072 28.6977 6.79049 28.6977 6.79025C28.6977 6.79002 28.6977 6.78978 28.6977 6.78955C28.6977 6.78931 28.6977 6.78908 28.6977 6.78884C28.6977 6.78861 28.6977 6.78837 28.6977 6.78814C28.6977 6.7879 28.6977 6.78767 28.6977 6.78743C28.6977 6.7872 28.6977 6.78696 28.6977 6.78672C28.6977 6.78649 28.6977 6.78625 28.6977 6.78602C28.6977 6.78578 28.6977 6.78555 28.6977 6.78531C28.6977 6.78507 28.6977 6.78484 28.6977 6.7846C28.6977 6.78437 28.6977 6.78413 28.6977 6.7839C28.6977 6.78366 28.6977 6.78342 28.6977 6.78319C28.6977 6.78295 28.6977 6.78272 28.6977 6.78248C28.6977 6.78224 28.6977 6.78201 28.6977 6.78177C28.6977 6.78154 28.6977 6.7813 28.6977 6.78106C28.6977 6.78083 28.6977 6.78059 28.6977 6.78036C28.6977 6.78012 28.6977 6.77988 28.6977 6.77965C28.6977 6.77941 28.6977 6.77918 28.6977 6.77894C28.6977 6.7787 28.6977 6.77847 28.6977 6.77823C28.6977 6.77799 28.6977 6.77776 28.6977 6.77752C28.6977 6.77729 28.6977 6.77705 28.6977 6.77681C28.6977 6.77658 28.6977 6.77634 28.6977 6.7761C28.6977 6.77587 28.6977 6.77563 28.6977 6.77539C28.6977 6.77516 28.6977 6.77492 28.6977 6.77469C28.6977 6.77445 28.6977 6.77421 28.6977 6.77398C28.6977 6.77374 28.6977 6.7735 28.6977 6.77327C28.6977 6.77303 28.6977 6.77279 28.6977 6.77256C28.6977 6.77232 28.6977 6.77208 28.6977 6.77185C28.6977 6.77161 28.6977 6.77138 28.6977 6.77114C28.6977 6.7709 28.6977 6.77067 28.6977 6.77043C28.6977 6.77019 28.6977 6.76996 28.6977 6.76972C28.6977 6.76948 28.6977 6.76925 28.6977 6.76901C28.6977 6.76877 28.6977 6.76854 28.6977 6.7683C28.6977 6.76806 28.6977 6.76783 28.6977 6.76759C28.6977 6.76735 28.6977 6.76712 28.6977 6.76688C28.6977 6.76664 28.6977 6.76641 28.6977 6.76617C28.6977 6.76593 28.6977 6.7657 28.6977 6.76546C28.6977 6.76522 28.6977 6.76499 28.6977 6.76475C28.6977 6.76451 28.6977 6.76428 28.6977 6.76404C28.6977 6.7638 28.6977 6.76357 28.6977 6.76333C28.6977 6.76309 28.6977 6.76286 28.6977 6.76262C28.6977 6.76238 28.6977 6.76215 28.6977 6.76191C28.6977 6.76167 28.6977 6.76144 28.6977 6.7612C28.6977 6.76096 28.6977 6.76073 28.6977 6.76049C28.6977 6.76025 28.6977 6.76002 28.6977 6.75978C28.6977 6.75954 28.6977 6.75931 28.6977 6.75907C28.6977 6.75884 28.6977 6.7586 28.6977 6.75836C28.6977 6.75813 28.6977 6.75789 28.6977 6.75765C28.6977 6.75742 28.6977 6.75718 28.6977 6.75694C28.6977 6.75671 28.6977 6.75647 28.6977 6.75623C28.6977 6.756 28.6977 6.75576 28.6977 6.75553C28.6977 6.75529 28.6977 6.75505 28.6977 6.75482C28.6977 6.75458 28.6977 6.75434 28.6977 6.75411C28.6977 6.75387 28.6977 6.75363 28.6977 6.7534C28.6977 6.75316 28.6977 6.75293 28.6977 6.75269C28.6977 6.75245 28.6977 6.75222 28.6977 6.75198C28.6977 6.75174 28.6977 6.75151 28.6977 6.75127C28.6977 6.75104 28.6977 6.7508 28.6977 6.75056C28.6977 6.75033 28.6977 6.75009 28.6977 6.74986C28.6977 6.74962 28.6977 6.74938 28.6977 6.74915C28.6977 6.74891 28.6977 6.74868 28.6977 6.74844C28.6977 6.7482 28.6977 6.74797 28.6977 6.74773C28.6977 6.7475 28.6977 6.74726 28.6977 6.74702C28.6977 6.74679 28.6977 6.74655 28.6977 6.74632C28.6977 6.74608 28.6977 6.74585 28.6977 6.74561C28.6977 6.74537 28.6977 6.74514 28.6977 6.7449C28.6977 6.74467 28.6977 6.74443 28.6977 6.7442C28.6977 6.74396 28.6977 6.74372 28.6977 6.74349C28.6977 6.74325 28.6977 6.74302 28.6977 6.74278C28.6977 6.74255 28.6977 6.74231 28.6977 6.74208C28.6977 6.74184 28.6977 6.74161 28.6977 6.74137C28.6977 6.74114 28.6977 6.7409 28.6977 6.74067C28.6977 6.74043 28.6977 6.7402 28.6977 6.73996C28.6977 6.73973 28.6977 6.73949 28.6977 6.73925C28.6977 6.73902 28.6977 6.73879 28.6977 6.73855C28.6977 6.73832 28.6977 6.73808 28.6977 6.73785C28.6977 6.73761 28.6977 6.73738 28.6977 6.73714C28.6977 6.73691 28.6977 6.73667 28.6977 6.73644C28.6977 6.7362 28.6977 6.73597 28.6977 6.73573C28.6977 6.7355 28.6977 6.73526 28.6977 6.73503C28.6977 6.7348 28.6977 6.73456 28.6977 6.73433C28.6977 6.73409 28.6977 6.73386 28.6977 6.73362C28.6977 6.73339 28.6977 6.73316 28.6977 6.73292C28.6977 6.73269 28.6977 6.73245 28.6977 6.73222C28.6977 6.73199 28.6977 6.73175 28.6977 6.73152C28.6977 6.73128 28.6977 6.73105 28.6977 6.73082C28.6977 6.73058 28.6977 6.73035 28.6977 6.73012C28.6977 6.72988 28.6977 6.72965 28.6977 6.72942C28.6977 6.72918 28.6977 6.72895 28.6977 6.72871C28.6977 6.72848 28.6977 6.72825 28.6977 6.72802C28.6977 6.72778 28.6977 6.72755 28.6977 6.72732C28.6977 6.72708 28.6977 6.72685 28.6977 6.72662C28.6977 6.72638 28.6977 6.72615 28.6977 6.72592C28.6977 6.72568 28.6977 6.72545 28.6977 6.72522C28.6977 6.72499 28.6977 6.72475 28.6977 6.72452C28.6977 6.72429 28.6977 6.72406 28.6977 6.72382C28.6977 6.72359 28.6977 6.72336 28.6977 6.72313C28.6977 6.72289 28.6977 6.72266 28.6977 6.72243C28.6977 6.7222 28.6977 6.72197 28.6977 6.72173C28.6977 6.7215 28.6977 6.72127 28.6977 6.72104C28.6977 6.72081 28.6977 6.72057 28.6977 6.72034C28.6977 6.72011 28.6977 6.71988 28.6977 6.71965C28.6977 6.71942 28.6977 6.71918 28.6977 6.71895C28.6977 6.71872 28.6977 6.71849 28.6977 6.71826C28.6977 6.71803 28.6977 6.7178 28.6977 6.71757C28.6977 6.71734 28.6977 6.7171 28.6977 6.71687C28.6977 6.71664 28.6977 6.71641 28.6977 6.71618C28.6977 6.71595 28.6977 6.71572 28.6977 6.71549C28.6977 6.71526 28.6977 6.71503 28.6977 6.7148C28.6977 6.71457 28.6977 6.71434 28.6977 6.71411C28.6977 6.71388 28.6977 6.71365 28.6977 6.71342C28.6977 6.71319 28.6977 6.71296 28.6977 6.71273C28.6977 6.7125 28.6977 6.71227 28.6977 6.71204C28.6977 6.71181 28.6977 6.71158 28.6977 6.71135C28.6977 6.71112 28.6977 6.71089 28.6977 6.71066C28.6977 6.71043 28.6977 6.7102 28.6977 6.70997C28.6977 6.70974 28.6977 6.70951 28.6977 6.70929C28.6977 6.70906 28.6977 6.70883 28.6977 6.7086C28.6977 6.70837 28.6977 6.70814 28.6977 6.70791C28.6977 6.70768 28.6977 6.70746 28.6977 6.70723C28.6977 6.707 28.6977 6.70677 28.6977 6.70654C28.6977 6.70631 28.6977 6.70609 28.6977 6.70586C28.6977 6.70563 28.6977 6.7054 28.6977 6.70518C28.6977 6.70495 28.6977 6.70472 28.6977 6.70449C28.6977 6.70427 28.6977 6.70404 28.6977 6.70381C28.6977 6.70358 28.6977 6.70336 28.6977 6.70313C28.6977 6.7029 28.6977 6.70267 28.6977 6.70245C28.6977 6.70222 28.6977 6.70199 28.6977 6.70177C28.6977 6.70154 28.6977 6.70131 28.6977 6.70109C28.6977 6.70086 28.6977 6.70063 28.6977 6.70041C28.6977 6.70018 28.6977 6.69996 28.6977 6.69973C28.6977 6.6995 28.6977 6.69928 28.6977 6.69905C28.6977 6.69883 28.6977 6.6986 28.6977 6.69838C28.6977 6.69815 28.6977 6.69792 28.6977 6.6977C28.6977 6.69747 28.6977 6.69725 28.6977 6.69702C28.6977 6.6968 28.6977 6.69657 28.6977 6.69635C28.6977 6.69612 28.6977 6.6959 28.6977 6.69567C28.6977 6.69545 28.6977 6.69523 28.6977 6.695C28.6977 6.69478 28.6977 6.69455 28.6977 6.69433C28.6977 6.6941 28.6977 6.69388 28.6977 6.69366C28.6977 6.69343 28.6977 6.69321 28.6977 6.69299C28.6977 6.69276 28.6977 6.69254 28.6977 6.69232C28.6977 6.69209 28.6977 6.69187 28.6977 6.69165C28.6977 6.69142 28.6977 6.6912 28.6977 6.69098C28.6977 6.69075 28.6977 6.69053 28.6977 6.69031C28.6977 6.69009 28.6977 6.68986 28.6977 6.68964C28.6977 6.68942 28.6977 6.6892 28.6977 6.68897C28.6977 6.68875 28.6977 6.68853 28.6977 6.68831C28.6977 6.68809 28.6977 6.68787 28.6977 6.68764C28.6977 6.68742 28.6977 6.6872 28.6977 6.68698C28.6977 6.68676 28.6977 6.68654 28.6977 6.68632C28.6977 6.6861 28.6977 6.68587 28.6977 6.68565C28.6977 6.68543 28.6977 6.68521 28.6977 6.68499C28.6977 6.68477 28.6977 6.68455 28.6977 6.68433C28.6977 6.68411 28.6977 6.68389 28.6977 6.68367C28.6977 6.68345 28.6977 6.68323 28.6977 6.68301C28.6977 6.68279 28.6977 6.68257 28.6977 6.68235C28.6977 6.68213 28.6977 6.68191 28.6977 6.6817C28.6977 6.68148 28.6977 6.68126 28.6977 6.68104C28.6977 6.68082 28.6977 6.6806 28.6977 6.68038C28.6977 6.68017 28.6977 6.67995 28.6977 6.67973C28.6977 6.67951 28.6977 6.67929 28.6977 6.67907C28.6977 6.67886 28.6977 6.67864 28.6977 6.67842C28.6977 6.6782 28.6977 6.67799 28.6977 6.67777C28.6977 6.67755 28.6977 6.67734 28.6977 6.67712C28.6977 6.6769 28.6977 6.67668 28.6977 6.67647C28.6977 6.67625 28.6977 6.67604 28.6977 6.67582C28.6977 6.6756 28.6977 6.67539 28.6977 6.67517C28.6977 6.67495 28.6977 6.67474 28.6977 6.67452C28.6977 6.67431 28.6977 6.67409 28.6977 6.67388C28.6977 6.67366 28.6977 6.67345 28.6977 6.67323C28.6977 6.67302 28.6977 6.6728 28.6977 6.67259C28.6977 6.67237 28.6977 6.67216 28.6977 6.67194C28.6977 6.67173 28.6977 6.67151 28.6977 6.6713C28.6977 6.67109 28.6977 6.67087 28.6977 6.67066C28.6977 6.67044 28.6977 6.67023 28.6977 6.67002C28.6977 6.6698 28.6977 6.66959 28.6977 6.66938C28.6977 6.66917 28.6977 6.66895 28.6977 6.66874C28.6977 6.66853 28.6977 6.66831 28.6977 6.6681C28.6977 6.66789 28.6977 6.66768 28.6977 6.66747C28.6977 6.66725 28.6977 6.66704 28.6977 6.66683C28.6977 6.66662 28.6977 6.66641 28.6977 6.6662C28.6977 6.66598 28.6977 6.66577 28.6977 6.66556C28.6977 6.66535 28.6977 6.66514 28.6977 6.66493C28.6977 6.66472 28.6977 6.66451 28.6977 6.6643C28.6977 6.66409 28.6977 6.66388 28.6977 6.66367C28.6977 6.66346 28.6977 6.66325 28.6977 6.66304C28.6977 6.66283 28.6977 6.66262 28.6977 6.66241C28.6977 6.6622 28.6977 6.66199 28.6977 6.66178C28.6977 6.66158 28.6977 6.66137 28.6977 6.66116C28.6977 6.66095 28.6977 6.66074 28.6977 6.66053C28.6977 6.66033 28.6977 6.66012 28.6977 6.65991C28.6977 6.6597 28.6977 6.65949 28.6977 6.65929C28.6977 6.65908 28.6977 6.65887 28.6977 6.65867C28.6977 6.65846 28.6977 6.65825 28.6977 6.65805C28.6977 6.65784 28.6977 6.65763 28.6977 6.65743C28.6977 6.65722 28.6977 6.65701 28.6977 6.65681C28.6977 6.6566 28.6977 6.6564 28.6977 6.65619C28.6977 6.65599 28.6977 6.65578 28.6977 6.65558C28.6977 6.65537 28.6977 6.65517 28.6977 6.65496C28.6977 6.65476 28.6977 6.65455 28.6977 6.65435C28.6977 6.65414 28.6977 6.65394 28.6977 6.65374C28.6977 6.65353 28.6977 6.65333 28.6977 6.65312C28.6977 6.65292 28.6977 6.65272 28.6977 6.65251C28.6977 6.65231 28.6977 6.65211 28.6977 6.65191C28.6977 6.6517 28.6977 6.6515 28.6977 6.6513C28.6977 6.6511 28.6977 6.65089 28.6977 6.65069C28.6977 6.65049 28.6977 6.65029 28.6977 6.65009C28.6977 6.64989 28.6977 6.64968 28.6977 6.64948C28.6977 6.64928 28.6977 6.64908 28.6977 6.64888C28.6977 6.64868 28.6977 6.64848 28.6977 6.64828C28.6977 6.64808 28.6977 6.64788 28.6977 6.64768C28.6977 6.64748 28.6977 6.64728 28.6977 6.64708C28.6977 6.64688 28.6977 6.64668 28.6977 6.64648C28.6977 6.64629 28.6977 6.64609 28.6977 6.64589C28.6977 6.64569 28.6977 6.64549 28.6977 6.64529C28.6977 6.64509 28.6977 6.6449 28.6977 6.6447C28.6977 6.6445 28.6977 6.6443 28.6977 6.64411C28.6977 6.64391 28.6977 6.64371 28.6977 6.64352C28.6977 6.64332 28.6977 6.64312 28.6977 6.64293C28.6977 6.64273 28.6977 6.64253 28.6977 6.64234C28.6977 6.64214 28.6977 6.64195 28.6977 6.64175C28.6977 6.64156 28.6977 6.64136 28.6977 6.64117C28.6977 6.64097 28.6977 6.64078 28.6977 6.64058C28.6977 6.64039 28.6977 6.64019 28.6977 6.64C28.6977 6.6398 28.6977 6.63961 28.6977 6.63942C28.6977 6.63922 28.6977 6.63903 28.6977 6.63884C28.6977 6.63864 28.6977 6.63845 28.6977 6.63826C28.6977 6.63807 28.6977 6.63787 28.6977 6.63768C28.6977 6.63749 28.6977 6.6373 28.6977 6.6371C28.6977 6.63691 28.6977 6.63672 28.6977 6.63653C28.6977 6.63634 28.6977 6.63615 28.6977 6.63596C28.6977 6.63577 28.6977 6.63557 28.6977 6.63538C28.6977 6.63519 28.6977 6.635 28.6977 6.63481C28.6977 6.63462 28.6977 6.63443 28.6977 6.63424C28.6977 6.63406 28.6977 6.63387 28.6977 6.63368C28.6977 6.63349 28.6977 6.6333 28.6977 6.63311C28.6977 6.63292 28.6977 6.63273 28.6977 6.63255C28.6977 6.63236 28.6977 6.63217 28.6977 6.63198C28.6977 6.6318 28.6977 6.63161 28.6977 6.63142C28.6977 6.63123 28.6977 6.63105 28.6977 6.63086C28.6977 6.63067 28.6977 6.63049 28.6977 6.6303C28.6977 6.63012 28.6977 6.62993 28.6977 6.62974C28.6977 6.62956 28.6977 6.62937 28.6977 6.62919C28.6977 6.629 28.6977 6.62882 28.6977 6.62863C28.6977 6.62845 28.6977 6.62827 28.6977 6.62808C28.6977 6.6279 28.6977 6.62771 28.6977 6.62753C28.6977 6.62735 28.6977 6.62716 28.6977 6.62698C28.6977 6.6268 28.6977 6.62661 28.6977 6.62643C28.6977 6.62625 28.6977 6.62607 28.6977 6.62589C28.6977 6.6257 28.6977 6.62552 28.6977 6.62534C28.6977 6.62516 28.6977 6.62498 28.6977 6.6248C28.6977 6.62461 28.6977 6.62443 28.6977 6.62425C28.6977 6.62407 28.6977 6.62389 28.6977 6.62371C28.6977 6.62353 28.6977 6.62335 28.6977 6.62317C28.6977 6.62299 28.6977 6.62282 28.6977 6.62264C28.6977 6.62246 28.6977 6.62228 28.6977 6.6221C28.6977 6.62192 28.6977 6.62174 28.6977 6.62157C28.6977 6.62139 28.6977 6.62121 28.6977 6.62103C28.6977 6.62086 28.6977 6.62068 28.6977 6.6205C28.6977 6.62033 28.6977 6.62015 28.6977 6.61997C28.6977 6.6198 28.6977 6.61962 28.6977 6.61944C28.6977 6.61927 28.6977 6.61909 28.6977 6.61892C28.6977 6.61874 28.6977 6.61857 28.6977 6.61839C28.6977 6.61822 28.6977 6.61804 28.6977 6.61787C28.6977 6.6177 28.6977 6.61752 28.6977 6.61735C28.6977 6.61718 28.6977 6.617 28.6977 6.61683C28.6977 6.61666 28.6977 6.61648 28.6977 6.61631C28.6977 6.61614 28.6977 6.61597 28.6977 6.6158C28.6977 6.61562 28.6977 6.61545 28.6977 6.61528C28.6977 6.61511 28.6977 6.61494 28.6977 6.61477C28.6977 6.6146 28.6977 6.61443 28.6977 6.61426C28.6977 6.61409 28.6977 6.61392 28.6977 6.61375C28.6977 6.61358 28.6977 6.61341 28.6977 6.61324C28.6977 6.61307 28.6977 6.6129 28.6977 6.61273C28.6977 6.61256 28.6977 6.6124 28.6977 6.61223C28.6977 6.61206 28.6977 6.61189 28.6977 6.61173C28.6977 6.61156 28.6977 6.61139 28.6977 6.61122C28.6977 6.61106 28.6977 6.61089 28.6977 6.61072C28.6977 6.61056 28.6977 6.61039 28.6977 6.61023C28.6977 6.61006 28.6977 6.6099 28.6977 6.60973C28.6977 6.60957 28.6977 6.6094 28.6977 6.60924C28.6977 6.60907 28.6977 6.60891 28.6977 6.60875C28.6977 6.60858 28.6977 6.60842 28.6977 6.60825C28.6977 6.60809 28.6977 6.60793 28.6977 6.60777C28.6977 6.6076 28.6977 6.60744 28.6977 6.60728C28.6977 6.60712 28.6977 6.60696 28.6977 6.60679C28.6977 6.60663 28.6977 6.60647 28.6977 6.60631C28.6977 6.60615 28.6977 6.60599 28.6977 6.60583C28.6977 6.60567 28.6977 6.60551 28.6977 6.60535C28.6977 6.60519 28.6977 6.60503 28.6977 6.60487C28.6977 6.60471 28.6977 6.60455 28.6977 6.6044C28.6977 6.60424 28.6977 6.60408 28.6977 6.60392H27.1977ZM14.4739 11.2308C16.8021 11.2308 18.6455 13.0751 18.6455 15.4078H20.1455C20.1455 12.2482 17.632 9.73084 14.4739 9.73084V11.2308ZM18.6455 15.4078C18.6455 17.7405 16.8021 19.5847 14.4739 19.5847V21.0847C17.632 21.0847 20.1455 18.5674 20.1455 15.4078H18.6455ZM14.4739 19.5847C12.1457 19.5847 10.3023 17.7405 10.3023 15.4078H8.80227C8.80227 18.5674 11.3157 21.0847 14.4739 21.0847V19.5847ZM10.3023 15.4078C10.3023 13.0751 12.1457 11.2308 14.4739 11.2308V9.73084C11.3157 9.73084 8.80227 12.2482 8.80227 15.4078H10.3023ZM22.4763 12.4948C22.92 13.8272 23.4009 15.292 23.7706 16.5222C23.9556 17.1379 24.1102 17.6867 24.218 18.1267C24.3324 18.594 24.3742 18.8632 24.3742 18.9617H25.8742C25.8742 18.6563 25.7849 18.2188 25.6749 17.7698C25.5583 17.2936 25.3953 16.7167 25.2071 16.0905C24.8305 14.8371 24.3433 13.3538 23.8994 12.0209L22.4763 12.4948ZM24.3742 18.9617V21.0617H25.8742V18.9617H24.3742ZM24.3742 21.0617C24.3742 22.3809 23.4715 23.3001 22.5424 23.3001V24.8001C24.5179 24.8001 25.8742 22.9732 25.8742 21.0617H24.3742ZM22.5424 23.3001H6.40604V24.8001H22.5424V23.3001ZM6.40604 23.3001C5.53153 23.3001 4.57422 22.4316 4.57422 21.0617H3.07422C3.07422 23.084 4.53736 24.8001 6.40604 24.8001V23.3001ZM4.57422 21.0617V18.9617H3.07422V21.0617H4.57422ZM4.57422 18.9617C4.57422 18.8692 4.61806 18.6002 4.74082 18.1242C4.85585 17.6781 5.02036 17.1218 5.21545 16.5009C5.60531 15.26 6.10632 13.7953 6.55061 12.5014L5.13192 12.0142C4.6887 13.305 4.18119 14.7884 3.78441 16.0513C3.58617 16.6823 3.41283 17.2668 3.28834 17.7496C3.17157 18.2024 3.07422 18.6503 3.07422 18.9617H4.57422Z" fill="white"/>
</svg>
